<svg width="80" height="80" viewBox="0 0 80 80" fill="none" xmlns="http://www.w3.org/2000/svg">
<path d="M1.70197 13.7419C1.4312 13.1871 1.28937 12.5807 1.28937 11.9613C1.28937 10.9161 1.70197 9.90968 2.44982 9.1613L2.57875 9.03226C2.57875 7.61291 3.15898 6.32259 4.08734 5.38065C5.02859 4.45162 6.31798 3.87097 7.7363 3.87097L7.99418 3.36775C8.62598 2.09033 9.92826 1.29033 11.3466 1.29033C12.3394 1.29033 13.2936 1.69033 13.9898 2.3871L14.1832 2.58065L14.3766 2.3871C15.0729 1.69033 16.0271 1.29033 17.0199 1.29033C18.4382 1.29033 19.7405 2.09033 20.3723 3.36775L20.6302 3.87097C22.0485 3.87097 23.3379 4.45162 24.2791 5.38065C25.2075 6.32259 25.7877 7.61291 25.7877 9.03226L25.9167 9.1613C25.994 9.23872 26.0714 9.32904 26.1616 9.41936C26.7548 10.129 27.0771 11.0323 27.0771 11.9613C27.0771 12.5807 26.9353 13.1871 26.6645 13.7419L26.1359 14.7871C25.6846 14.4129 25.1172 14.1936 24.4983 14.1936H22.9897H22.9769C22.4611 12.6839 21.0299 11.6129 19.3408 11.6129H17.368C15.305 11.6129 13.3451 10.929 11.7592 9.71614L11.7463 9.72904L7.96839 10.8129C6.40823 11.2645 5.31225 12.6065 5.17042 14.1936H3.86814C3.24924 14.1936 2.68191 14.4129 2.23062 14.7871L1.70197 13.7419Z" fill="#656D78"/>
<path d="M5.15753 66.1419V69.6774C5.15753 72.1806 6.16325 74.4258 7.80077 76.0645C8.39389 76.6581 9.07726 77.1742 9.81221 77.5871L7.13029 78.4774C6.679 78.6322 6.20193 78.7097 5.72486 78.7097C4.49994 78.7097 3.39107 78.2193 2.59165 77.4064C1.77933 76.6064 1.28937 75.4968 1.28937 74.271V65.8064C1.28937 60.3742 4.65467 55.7161 9.4125 53.8193C10.8824 53.2258 12.4941 52.9032 14.1832 52.9032C17.7419 52.9032 20.9654 54.3484 23.2992 56.6839C25.633 59.0193 27.0771 62.2451 27.0771 65.8064V70.9806V74.271C27.0771 76.7226 25.0914 78.7097 22.6416 78.7097C22.1645 78.7097 21.6875 78.6322 21.2362 78.4774L18.5543 77.5871C21.3264 76.0387 23.2089 73.0839 23.2089 69.6774V67.0968C23.2089 64.9548 21.4812 63.2258 19.3408 63.2258H17.368C15.305 63.2258 13.3451 62.5419 11.7592 61.329L11.7463 61.3419L7.96839 62.4258C6.30508 62.9032 5.15753 64.4129 5.15753 66.1419Z" fill="#656D78"/>
<path d="M74.5523 65.8064C74.0366 64.2968 72.6054 63.2258 70.9163 63.2258H68.9435C66.8805 63.2258 64.9206 62.5419 63.3347 61.329L63.3218 61.3419L59.5439 62.4258C57.9837 62.8774 56.8877 64.2193 56.7459 65.8064H55.4436C54.9794 65.8064 54.5282 65.9355 54.1542 66.1548V60.9419C54.1542 56.5032 57.7516 52.9032 62.1871 52.9032C62.8447 52.9032 63.5023 52.9806 64.1341 53.1484L66.455 53.729C67.7057 54.0387 68.9822 54.1935 70.2716 54.1935H70.3618C71.6254 54.1806 72.8632 54.0258 74.0882 53.729L77.3632 52.9032L78.111 55.9097C78.4721 57.3419 78.6526 58.8129 78.6526 60.2968C78.6526 62.2322 78.3431 64.1677 77.7242 66.0129L77.6211 66.3226C77.1827 66 76.654 65.8064 76.0738 65.8064H74.5652H74.5523Z" fill="#B27946"/>
<path d="M58.0224 36.129C58.0224 36.8387 57.4422 37.4193 56.733 37.4193H52.8648H27.0771H23.2089C22.4998 37.4193 21.9196 36.8387 21.9196 36.129V33.5484C21.9196 32.8387 22.4998 32.2581 23.2089 32.2581H36.1028H43.8391H56.733C57.4422 32.2581 58.0224 32.8387 58.0224 33.5484V36.129Z" fill="#969FAA"/>
<path d="M43.1816 29.6L43.8392 32.258H36.1028L36.7604 29.6C37.1344 28.129 38.4495 27.0968 39.971 27.0968C41.4925 27.0968 42.8077 28.129 43.1816 29.6Z" fill="#AAB2BD"/>
<path d="M52.8648 37.4194V46.4516C52.8648 47.1613 52.2846 47.7419 51.5754 47.7419H28.3665C27.6573 47.7419 27.0771 47.1613 27.0771 46.4516V37.4194H52.8648Z" fill="#AAB2BD"/>
<path d="M61.9292 9.72902L58.1384 10.8129C56.4751 11.2903 55.3405 12.8 55.3405 14.529V18.0645C55.3405 20.5677 56.3462 22.8129 57.9837 24.4516C58.6026 25.071 59.2989 25.5871 60.0596 26.0129L59.5052 26.2968C58.4608 26.8258 57.3132 27.0968 56.1399 27.0968C53.9866 27.0968 51.9365 26.1677 50.5182 24.5548L50.2861 24.2968C51.0726 21.8839 51.4723 19.3548 51.4723 16.8V14.2452C51.4723 12.3484 51.8849 10.5419 52.6199 8.91612C53.2646 7.48386 54.1671 6.18064 55.2631 5.08386C57.6098 2.73547 60.8333 1.29031 64.4178 1.29031C71.561 1.29031 77.3632 7.09677 77.3632 14.2452V16.8C77.3632 19.3548 77.7629 21.8839 78.5494 24.2968L78.3173 24.5548C76.8861 26.1677 74.836 27.0968 72.6956 27.0968C72.0638 27.0968 71.432 27.0193 70.826 26.8516C70.3102 26.7226 69.8074 26.5419 69.3303 26.2968L68.6985 25.9871C71.4965 24.4516 73.3919 21.4839 73.3919 18.0645V15.4839C73.3919 13.3419 71.6512 11.6129 69.5237 11.6129H67.551C65.4879 11.6129 63.5152 10.929 61.9292 9.72902Z" fill="#FCD770"/>
<path d="M58.0224 52.9032C59.4466 52.9032 60.6012 51.7478 60.6012 50.3225C60.6012 48.8973 59.4466 47.7419 58.0224 47.7419C56.5982 47.7419 55.4436 48.8973 55.4436 50.3225C55.4436 51.7478 56.5982 52.9032 58.0224 52.9032Z" fill="#FCD770"/>
<path d="M74.7844 67.0967C74.7844 66.6451 74.707 66.2064 74.5523 65.8064H74.5652H76.0738C76.654 65.8064 77.1827 66 77.621 66.3226C78.24 66.8 78.6526 67.5484 78.6526 68.3871C78.6526 69.0967 78.3689 69.7419 77.8918 70.2064C77.4276 70.6838 76.7829 70.9677 76.0738 70.9677H74.6941H74.6812C74.7586 70.5419 74.7844 70.1161 74.7844 69.6774V67.0967Z" fill="#F0D0B4"/>
<path d="M56.733 69.6774C56.733 70.1161 56.7588 70.5419 56.8362 70.9677H56.8233H55.4436C54.8892 70.9677 54.3863 70.8 53.9608 70.5032C53.8448 70.4129 53.7288 70.3097 53.6256 70.2064C53.1485 69.7419 52.8649 69.0967 52.8649 68.3871C52.8649 67.4322 53.3806 66.6064 54.1543 66.1548C54.5282 65.9355 54.9795 65.8064 55.4436 65.8064H56.7459C56.733 65.9226 56.733 66.0258 56.733 66.1419V69.6774Z" fill="#F0D0B4"/>
<path d="M23.2089 67.0968V69.6774C23.2089 73.0838 21.3264 76.0387 18.5543 77.5871H18.5414C17.252 78.3097 15.7692 78.7097 14.1832 78.7097C12.5973 78.7097 11.1145 78.3097 9.82511 77.5871H9.81222C9.07727 77.1742 8.39389 76.658 7.80077 76.0645C6.16325 74.4258 5.15753 72.1806 5.15753 69.6774V66.1419C5.15753 64.4129 6.30509 62.9032 7.96839 62.4258L11.7463 61.3419L11.7592 61.329C13.3451 62.5419 15.305 63.2258 17.368 63.2258H19.3408C21.4812 63.2258 23.2089 64.9548 23.2089 67.0968Z" fill="#F0D0B4"/>
<path d="M74.7844 67.0968V69.6774C74.7844 70.1161 74.7587 70.5419 74.6813 70.9677C74.0624 75.3548 70.3103 78.7097 65.7587 78.7097C63.2573 78.7097 61.0138 77.7032 59.3763 76.0645C58.0224 74.7097 57.107 72.9548 56.8362 70.9677C56.7588 70.5419 56.733 70.1161 56.733 69.6774V66.1419C56.733 66.0258 56.733 65.9226 56.7459 65.8064C56.8878 64.2193 57.9837 62.8774 59.5439 62.4258L63.3218 61.3419L63.3347 61.329C64.9206 62.5419 66.8805 63.2258 68.9435 63.2258H70.9163C72.6054 63.2258 74.0366 64.2968 74.5524 65.8064C74.7071 66.2064 74.7844 66.6451 74.7844 67.0968Z" fill="#F0D0B4"/>
<path d="M73.3919 15.4839V18.0645C73.3919 21.4839 71.4965 24.4516 68.6986 25.9871C67.4092 26.6968 65.9393 27.0968 64.3662 27.0968C62.8061 27.0968 61.3491 26.7097 60.0726 26.0129H60.0597C59.2989 25.5871 58.6027 25.071 57.9838 24.4516C56.3462 22.8129 55.3405 20.5677 55.3405 18.0645V14.529C55.3405 12.8 56.4752 11.2903 58.1385 10.8129L61.9293 9.72902C63.5152 10.929 65.488 11.6129 67.551 11.6129H69.5238C71.6513 11.6129 73.3919 13.3419 73.3919 15.4839Z" fill="#F0D0B4"/>
<path d="M22.9898 14.1935H24.4983C25.1173 14.1935 25.6846 14.4129 26.1359 14.7871C26.7161 15.2645 27.0771 15.9742 27.0771 16.7742C27.0771 17.4839 26.7935 18.129 26.3164 18.5935C25.8522 19.0709 25.2075 19.3548 24.4983 19.3548H23.1187H23.1058C23.1832 18.929 23.209 18.5032 23.209 18.0645V15.4838C23.209 15.0322 23.1316 14.5935 22.9769 14.1935H22.9898Z" fill="#F0D0B4"/>
<path d="M23.2089 18.0645C23.2089 18.5032 23.1832 18.929 23.1058 19.3548C22.4869 23.7419 18.7348 27.0968 14.1832 27.0968C12.4941 27.0968 10.9211 26.6322 9.58013 25.8322C8.92254 25.4451 8.32942 24.9806 7.80077 24.4516C6.44692 23.0968 5.53145 21.3419 5.26068 19.3548C5.18332 18.929 5.15753 18.5032 5.15753 18.0645V14.529C5.15753 14.4129 5.15753 14.3097 5.17043 14.1935C5.31226 12.6064 6.40824 11.2645 7.96839 10.8129L11.7463 9.72901L11.7592 9.71611C13.3451 10.929 15.305 11.6129 17.368 11.6129H19.3408C21.0299 11.6129 22.4611 12.6839 22.9769 14.1935C23.1316 14.5935 23.2089 15.0322 23.2089 15.4839V18.0645Z" fill="#F0D0B4"/>
<path d="M5.24779 19.3548H3.86814C3.15898 19.3548 2.51429 19.0709 2.05011 18.5935C1.57303 18.129 1.28937 17.4839 1.28937 16.7742C1.28937 15.9742 1.6504 15.2645 2.23062 14.7871C2.68191 14.4129 3.24924 14.1935 3.86814 14.1935H5.17042C5.15753 14.3097 5.15753 14.4129 5.15753 14.529V18.0645C5.15753 18.5032 5.18332 18.929 5.26068 19.3548H5.24779Z" fill="#F0D0B4"/>
<path d="M65.4544 72.2581H63.1799V74.8387H65.4544C67.7237 74.8387 69.7648 73.5768 70.7809 71.5445L68.4742 70.3897C67.8978 71.5419 66.7412 72.2581 65.4544 72.2581Z" fill="black"/>
<path d="M79.363 55.5923L78.3019 51.3381L73.7697 52.4723C73.3132 52.5871 72.8478 52.6606 72.381 52.729C73.9734 48.6826 74.7844 44.4116 74.7844 40C74.7844 35.9974 74.1101 32.1006 72.7936 28.3819C75.2744 28.3523 77.6353 27.2787 79.2831 25.4168L80 24.6065L79.7731 23.9058C79.0291 21.6065 78.6526 19.2168 78.6526 16.8026V14.2477C78.6526 6.39097 72.2663 0 64.4152 0C59.0836 0 54.434 2.95226 51.9958 7.30452C48.1521 5.88774 44.1138 5.16129 39.971 5.16129C35.444 5.16129 31.0613 6.02193 26.9185 7.70194C26.3576 5.04516 24.176 2.98064 21.4502 2.63226C20.5657 1.00387 18.8856 0 17.0251 0C15.9961 0 15.0149 0.305806 14.1833 0.876129C13.3529 0.307097 12.3717 0 11.3414 0C9.48215 0 7.80208 1.00387 6.91627 2.63226C3.9236 3.01419 1.56532 5.45677 1.31131 8.49032C0.474494 9.44387 0 10.6929 0 11.9665C0 12.7768 0.190829 13.5897 0.554436 14.3187L0.685954 14.5819C0.255299 15.2065 0 15.96 0 16.7742C0 18.9084 1.73551 20.6452 3.86816 20.6452H4.20727C4.79781 22.9277 6.14522 24.9019 7.97228 26.2865C6.11169 30.6219 5.15755 35.2271 5.15755 40C5.15755 44.5716 6.03433 48.9961 7.74406 53.1755C3.15513 55.529 0 60.3006 0 65.8064V74.2697C0 77.4297 2.56846 80 5.72617 80C6.34378 80 6.95237 79.9006 7.53776 79.7058L9.72971 78.9742C11.081 79.6245 12.587 80 14.1833 80C15.7795 80 17.2855 79.6245 18.6355 78.9742L20.8275 79.7058C21.4128 79.9006 22.0227 80 22.6403 80C25.798 80 28.3665 77.4297 28.3665 74.2697V72.8516C32.0825 74.1677 35.9752 74.8387 39.971 74.8387C44.8178 74.8387 49.4957 73.8529 53.8938 71.929C54.3696 72.1381 54.8918 72.2581 55.4436 72.2581H55.7827C56.9329 76.7032 60.9622 80 65.7587 80C70.5552 80 74.5846 76.7032 75.7347 72.2581H76.0738C78.2065 72.2581 79.942 70.5213 79.942 68.3871C79.942 67.471 79.6093 66.6387 79.0755 65.9755C79.6415 64.1303 79.942 62.2219 79.942 60.2916C79.942 58.7084 79.7473 57.1264 79.363 55.5923ZM56.626 18.0645V14.5329C56.626 13.3871 57.3958 12.3665 58.4956 12.0516L61.6765 11.1419C63.3785 12.2723 65.4067 12.9032 67.5497 12.9032H69.5199C70.9421 12.9032 72.0986 14.0606 72.0986 15.4839V18.0645C72.0986 22.3342 68.6289 25.8064 64.3623 25.8064C60.0957 25.8064 56.626 22.3342 56.626 18.0645ZM64.4152 2.58065C70.8428 2.58065 76.0738 7.81419 76.0738 14.2477V16.8026C76.0738 19.2348 76.4181 21.6439 77.0963 23.9755C75.6199 25.4581 73.3919 26.0542 71.3559 25.631C73.3932 23.7445 74.6774 21.0555 74.6774 18.0645V15.4839C74.6774 12.6374 72.3643 10.3226 69.5199 10.3226H67.5497C64.4848 10.3226 61.7281 8.61806 60.3588 5.87484L58.0521 7.02968C58.4298 7.78452 58.885 8.48 59.4098 9.1071L57.789 9.57032C55.5868 10.1987 54.0485 12.24 54.0485 14.5329V18.0645C54.0485 21.0645 55.3418 23.7626 57.3919 25.6503C55.3817 26.0387 53.1924 25.4387 51.7366 23.9755C52.4149 21.6439 52.7591 19.2348 52.7591 16.8026V14.2477C52.7578 7.81419 57.9876 2.58065 64.4152 2.58065ZM24.4983 15.4839C25.2101 15.4839 25.7877 16.0632 25.7877 16.7742C25.7877 17.4852 25.2101 18.0645 24.4983 18.0645V15.4839ZM2.57877 16.7742C2.57877 16.0632 3.15642 15.4839 3.86816 15.4839V18.0645C3.15642 18.0645 2.57877 17.4852 2.57877 16.7742ZM4.13635 12.9032H3.86816C3.50455 12.9032 3.159 12.9703 2.82505 13.0645C2.67032 12.7187 2.57877 12.3432 2.57877 11.9665C2.57877 11.2619 2.86502 10.5703 3.35885 10.0748L3.86816 9.56903V9.03226C3.86816 6.89806 5.60367 5.16129 7.73632 5.16129H8.53445L9.14304 3.94064C9.56209 3.10194 10.4041 2.58065 11.3414 2.58065C11.999 2.58065 12.6154 2.83613 13.0795 3.29935L14.1833 4.40903L15.2857 3.30194C15.7511 2.83613 16.3675 2.58065 17.0251 2.58065C17.9624 2.58065 18.8044 3.10194 19.2235 3.93935L19.8321 5.16129H20.6302C22.7628 5.16129 24.4983 6.89806 24.4983 9.03226V9.56903L25.0051 10.0735C25.5015 10.5703 25.7877 11.2619 25.7877 11.9665C25.7877 12.3445 25.6962 12.72 25.5415 13.0645C25.2075 12.9703 24.862 12.9032 24.4983 12.9032H23.7815C22.8866 11.3677 21.2414 10.3226 19.3408 10.3226H17.3706C14.3057 10.3226 11.549 8.61806 10.1797 5.87484L7.87171 7.02839C8.2495 7.78323 8.70465 8.47871 9.22943 9.10581L7.60867 9.57032C5.94923 10.0439 4.66758 11.3213 4.13635 12.9032ZM6.44693 18.0645V14.5329C6.44693 13.3871 7.2167 12.3665 8.31654 12.0516L11.4975 11.1419C13.1995 12.2723 15.2289 12.9032 17.3706 12.9032H19.3408C20.763 12.9032 21.9196 14.0606 21.9196 15.4839V18.0645C21.9196 22.3342 18.4498 25.8064 14.1833 25.8064C9.91667 25.8064 6.44693 22.3342 6.44693 18.0645ZM6.44693 69.6774V66.1458C6.44693 65 7.2167 63.9794 8.31654 63.6645L11.4975 62.7548C13.1995 63.8852 15.2289 64.5161 17.3706 64.5161H19.3408C20.763 64.5161 21.9196 65.6735 21.9196 67.0968V69.6774C21.9196 73.9471 18.4498 77.4193 14.1833 77.4193C9.91667 77.4193 6.44693 73.9471 6.44693 69.6774ZM25.7877 74.2697C25.7877 76.0064 24.3759 77.4193 22.6403 77.4193C22.3012 77.4193 21.9673 77.3652 21.6449 77.2581L21.2916 77.1406C23.2618 75.2581 24.4983 72.6116 24.4983 69.6774V67.0968C24.4983 64.2503 22.1852 61.9355 19.3408 61.9355H17.3706C14.3057 61.9355 11.549 60.231 10.1797 57.4877L7.873 58.6426C8.25079 59.3974 8.70594 60.0929 9.23072 60.72L7.60996 61.1832C5.4064 61.8116 3.86816 63.8529 3.86816 66.1458V69.6774C3.86816 72.6116 5.10468 75.2581 7.07615 77.1394L6.72286 77.2568C6.40052 77.3652 6.06528 77.4193 5.72617 77.4193C3.99065 77.4193 2.57877 76.0064 2.57877 74.2697V65.8064C2.57877 59.4039 7.78403 54.1935 14.1833 54.1935C20.5825 54.1935 25.7877 59.4039 25.7877 65.8064V74.2697ZM28.3665 70.0942V65.8064C28.3665 57.9806 22.0034 51.6129 14.1833 51.6129C12.7765 51.6129 11.4188 51.8258 10.1346 52.209C8.54992 48.3381 7.73632 44.2387 7.73632 40C7.73632 35.6852 8.57571 31.5187 10.2158 27.591C11.4381 28.1019 12.7778 28.3871 14.1833 28.3871C18.9785 28.3871 23.0091 25.0903 24.1592 20.6452H24.4983C26.631 20.6452 28.3665 18.9084 28.3665 16.7742C28.3665 15.96 28.1112 15.2065 27.6806 14.5819L27.8134 14.3161C28.1757 13.5897 28.3665 12.7768 28.3665 11.9665C28.3665 11.3071 28.2337 10.6568 27.9952 10.0477C31.7989 8.52129 35.8179 7.74194 39.971 7.74194C43.7515 7.74194 47.4365 8.39226 50.9475 9.66581C50.4576 11.1058 50.1791 12.6426 50.1791 14.2465V16.8013C50.1791 19.2155 49.8026 21.6052 49.0599 23.9032L48.8329 24.6039L49.5498 25.4142C51.2196 27.3045 53.6217 28.3871 56.1412 28.3871C57.5015 28.3871 58.8631 28.0645 60.0764 27.4581L60.0932 27.4503C61.3954 28.0465 62.8383 28.3871 64.3623 28.3871C65.907 28.3871 67.3692 28.0361 68.6856 27.4232L68.7527 27.4568C69.1086 27.6348 69.4773 27.7794 69.8538 27.9084C71.4088 31.7484 72.2057 35.8116 72.2057 40C72.2057 44.4787 71.2992 48.7961 69.5315 52.8568C68.6031 52.809 67.6773 52.6994 66.7735 52.4723L64.4513 51.8916C63.7138 51.7071 62.9517 51.6129 62.1897 51.6129C62.0053 51.6129 61.8261 51.6297 61.6443 51.64C61.7951 51.2271 61.8906 50.7871 61.8906 50.3226C61.8906 48.6426 60.8088 47.2232 59.3118 46.689V36.129V33.5484C59.3118 32.1252 58.1552 30.9677 56.733 30.9677H44.8449L44.4258 29.2877C43.9152 27.2374 42.083 25.8064 39.971 25.8064C37.859 25.8064 36.0268 27.2374 35.5162 29.2877L35.0971 30.9677H23.209C21.7868 30.9677 20.6302 32.1252 20.6302 33.5484V36.129C20.6302 37.5523 21.7868 38.7097 23.209 38.7097H25.7877V46.4516C25.7877 47.8748 26.9443 49.0323 28.3665 49.0323H51.5755C52.9977 49.0323 54.1542 47.8748 54.1542 46.4516V38.7097H56.733V46.689C55.236 47.2232 54.1542 48.6426 54.1542 50.3226C54.1542 51.8181 55.0156 53.1045 56.2598 53.7484C54.1878 55.4619 52.8649 58.0516 52.8649 60.9458V65.5226C52.0796 66.231 51.5755 67.2477 51.5755 68.3871C51.5755 68.951 51.7031 69.4826 51.9197 69.9664C48.1264 71.4865 44.1151 72.2581 39.971 72.2581C35.961 72.2581 32.0632 71.5239 28.3665 70.0942ZM28.3665 38.7097H51.5755V46.4516H28.3665V38.7097ZM23.209 36.129V33.5484H56.733L56.7343 36.129H23.209ZM37.7532 30.9677L38.0163 29.9135C38.2419 29.0142 39.0452 28.3871 39.971 28.3871C40.8968 28.3871 41.7001 29.0142 41.9257 29.9135L42.1887 30.9677H37.7532ZM58.0224 49.0323C58.7341 49.0323 59.3118 49.6116 59.3118 50.3226C59.3118 51.0335 58.7341 51.6129 58.0224 51.6129C57.3107 51.6129 56.733 51.0335 56.733 50.3226C56.733 49.6116 57.3107 49.0323 58.0224 49.0323ZM54.1542 68.3871C54.1542 67.6761 54.7319 67.0968 55.4436 67.0968V69.6774C54.7319 69.6774 54.1542 69.0981 54.1542 68.3871ZM73.495 69.6774C73.495 73.9471 70.0253 77.4193 65.7587 77.4193C61.4921 77.4193 58.0224 73.9471 58.0224 69.6774V66.1458C58.0224 65 58.7922 63.9794 59.892 63.6645L63.0729 62.7548C64.7749 63.8852 66.8044 64.5161 68.9461 64.5161H70.9163C72.3385 64.5161 73.495 65.6735 73.495 67.0968V69.6774ZM70.9163 61.9355H68.9461C65.8812 61.9355 63.1245 60.231 61.7552 57.4877L59.4485 58.6426C59.8263 59.3974 60.2814 60.0929 60.8062 60.72L59.1854 61.1832C57.5247 61.6568 56.2443 62.9342 55.7131 64.5161H55.4436V60.9458C55.4436 57.2232 58.4711 54.1935 62.1897 54.1935C62.7416 54.1935 63.2908 54.2619 63.8272 54.3948L66.1494 54.9755C68.8417 55.649 71.7028 55.649 74.395 54.9755L76.4258 54.4671L76.8629 56.2168C77.1943 57.5484 77.3632 58.9187 77.3632 60.2916C77.3632 61.7471 77.1659 63.1871 76.7946 64.5897C76.5599 64.5445 76.3201 64.5161 76.0738 64.5161H75.3569C74.4621 62.9806 72.8168 61.9355 70.9163 61.9355ZM76.0738 69.6774V67.0968C76.7856 67.0968 77.3632 67.6761 77.3632 68.3871C77.3632 69.0981 76.7856 69.6774 76.0738 69.6774Z" fill="black"/>
<path d="M19.2054 19.9316L16.8987 18.7768C16.3224 19.929 15.1658 20.6452 13.879 20.6452H11.6045V23.2258H13.879C16.147 23.2258 18.1881 21.9639 19.2054 19.9316Z" fill="black"/>
<path d="M13.879 72.2581H11.6045V74.8387H13.879C16.1483 74.8387 18.1894 73.5768 19.2054 71.5445L16.8987 70.3897C16.3224 71.5419 15.1658 72.2581 13.879 72.2581Z" fill="black"/>
<path d="M69.3844 19.9316L67.0777 18.7768C66.5014 19.929 65.3448 20.6452 64.058 20.6452H61.7835V23.2258H64.058C66.326 23.2258 68.3671 21.9639 69.3844 19.9316Z" fill="black"/>
</svg>
