<svg width="45" height="45" viewBox="0 0 45 45" fill="none" xmlns="http://www.w3.org/2000/svg">
<rect x="1.3418" y="0.992859" width="42.6577" height="42.561" rx="21.2805" stroke="#14A4F5"/>
<path d="M18.2563 20.5324C18.9171 21.7244 19.6787 22.8684 20.6675 23.9116C21.6595 24.9612 22.8931 25.9164 24.4899 26.7324C24.6083 26.79 24.7203 26.79 24.8211 26.75C24.9731 26.6924 25.1283 26.566 25.2803 26.414C25.3987 26.2956 25.5459 26.1068 25.6995 25.9004C26.3139 25.0924 27.0739 24.0892 28.1475 24.5916C28.1715 24.6028 28.1891 24.6156 28.2131 24.6252L31.7939 26.6844C31.8051 26.6908 31.8179 26.702 31.8275 26.7084C32.2995 27.0332 32.4947 27.534 32.4995 28.102C32.4995 28.6796 32.2867 29.3292 31.9747 29.878C31.5619 30.6028 30.9539 31.0828 30.2531 31.3996C29.5859 31.7068 28.8435 31.8716 28.1299 31.9772C27.0099 32.142 25.9603 32.0364 24.8867 31.7068C23.8371 31.382 22.7795 30.846 21.6243 30.1324L21.5395 30.078C21.0099 29.7468 20.4371 29.3932 19.8755 28.9756C17.8211 27.4236 15.7267 25.182 14.3619 22.7148C13.2179 20.6444 12.5939 18.4092 12.9347 16.2796C13.1235 15.1116 13.6243 14.0492 14.4979 13.3484C15.2595 12.734 16.2851 12.398 17.6131 12.5164C17.7651 12.5276 17.9011 12.6156 17.9731 12.7468L20.2691 16.6284C20.6051 17.0636 20.6467 17.4956 20.4627 17.9276C20.3107 18.2812 20.0035 18.6076 19.5843 18.9116C19.4611 19.0172 19.3139 19.1244 19.1587 19.2364C18.6451 19.6092 18.0611 20.0396 18.2611 20.5452L18.2563 20.5324Z" fill="#14A4F5"/>
</svg>
