<svg width="16" height="17" viewBox="0 0 16 17" fill="none" xmlns="http://www.w3.org/2000/svg">
<path d="M6.81721 10.2881L4.88129 8.35224C4.76592 8.23685 4.62089 8.17782 4.44621 8.17516C4.27153 8.17247 4.12383 8.2315 4.00311 8.35224C3.88238 8.47296 3.82202 8.61932 3.82202 8.79132C3.82202 8.96332 3.88238 9.10968 4.00311 9.2304L6.28996 11.5173C6.4406 11.6679 6.61635 11.7432 6.81721 11.7432C7.01806 11.7432 7.1938 11.6679 7.34444 11.5173L11.9806 6.88105C12.096 6.76568 12.1551 6.62065 12.1577 6.44597C12.1604 6.27129 12.1014 6.12359 11.9806 6.00286C11.8599 5.88214 11.7136 5.82178 11.5416 5.82178C11.3696 5.82178 11.2232 5.88214 11.1025 6.00286L6.81721 10.2881ZM8.00129 16.4163C6.90635 16.4163 5.87716 16.2085 4.91371 15.793C3.95025 15.3774 3.11218 14.8135 2.3995 14.1011C1.68681 13.3887 1.12259 12.551 0.706856 11.588C0.29112 10.625 0.083252 9.59599 0.083252 8.50105C0.083252 7.40611 0.29103 6.37691 0.706585 5.41347C1.12214 4.45001 1.6861 3.61194 2.39846 2.89926C3.11084 2.18656 3.94854 1.62235 4.91156 1.20661C5.87458 0.790877 6.90356 0.583008 7.9985 0.583008C9.09345 0.583008 10.1226 0.790787 11.0861 1.20634C12.0495 1.6219 12.8876 2.18586 13.6003 2.89822C14.313 3.61059 14.8772 4.44829 15.2929 5.41132C15.7087 6.37434 15.9165 7.40331 15.9165 8.49826C15.9165 9.5932 15.7088 10.6224 15.2932 11.5858C14.8777 12.5493 14.3137 13.3874 13.6013 14.1001C12.889 14.8127 12.0513 15.377 11.0882 15.7927C10.1252 16.2084 9.09624 16.4163 8.00129 16.4163Z" fill="#434343"/>
</svg>
