<svg width="292" height="29" viewBox="0 0 292 29" fill="none" xmlns="http://www.w3.org/2000/svg">
<path fill-rule="evenodd" clip-rule="evenodd" d="M0.848213 5.14535C1.06649 5.34356 1.18692 5.35861 1.54193 5.50664L3.6645 6.41613C4.12238 6.61308 4.58653 6.80376 5.07452 7.01451C6.89099 7.80232 6.55228 7.07097 6.52092 10.3502C7.41536 10.2297 9.1528 9.19604 12.501 9.2136H12.57C13.9047 9.22113 15.8253 9.51217 17.0509 9.90732C17.4373 10.0328 18.0884 10.3025 18.4773 10.3489L18.4723 7.78476C17.2742 7.1362 16.302 6.94426 14.8807 6.53531C18.0846 6.32455 18.6943 7.30555 19.1346 7.30681C19.5812 7.30931 21.621 6.12886 21.9948 6.18154V8.86737C21.8681 8.88618 21.7552 8.86988 21.6887 8.87991C21.4203 8.92131 21.3676 8.74945 21.3676 9.33278L21.4968 9.3955C21.5168 9.40177 21.5394 9.41181 21.5645 9.41808L21.9183 9.47202C22.0989 9.56862 22.0161 11.0853 21.9321 11.2985C21.7439 11.7777 21.2396 12.9569 21.2095 13.3207L23.2242 13.3182C23.2279 12.9105 22.7224 11.838 22.5543 11.3763C22.4 10.9536 22.4552 10.6349 22.4489 10.1607C22.4364 9.26754 22.3498 9.53977 23.1063 9.44192V8.89622L22.4452 8.87239L22.459 5.94445C22.9306 5.64338 23.7736 5.47904 24.1525 5.18424C23.9631 5.00736 19.0719 2.87727 18.4145 2.59125L12.5549 0.000765723C12.2852 -0.033105 9.99455 1.06707 9.59688 1.24144C8.56571 1.69556 7.65622 2.09071 6.67397 2.53981L0.845703 5.1441L0.848213 5.14535Z" fill="#14A4F5"/>
<path fill-rule="evenodd" clip-rule="evenodd" d="M12.7605 27.9516C13.3263 25.6697 16.4248 20.9566 18.4897 19.4952C17.6956 16.9361 17.0571 14.8687 18.0331 12.1641C18.1296 11.8956 18.3253 11.5418 18.3868 11.2558C18.0393 11.1705 17.5388 10.941 17.1148 10.7942C13.7214 9.62878 9.80122 9.75422 6.5948 11.3022C8.61449 14.3117 7.16307 18.1291 6.51953 19.5918C8.58188 20.4185 11.836 25.5944 12.1985 28.0344L12.265 25.2369L12.255 22.0518C12.255 21.2239 12.3817 18.3122 12.206 17.7841C11.9301 17.4956 11.5261 17.4253 11.5663 16.8081C11.6365 15.7355 13.2385 15.6176 13.4053 16.6638C13.5132 17.3438 13.1569 17.5257 12.7894 17.7665L12.7605 27.9516Z" fill="#14A4F5"/>
<path d="M31.7243 11.6652V9.2172H40.5263V11.6652H37.4303V20.0172H34.8383V11.6652H31.7243ZM44.4689 20.2692C41.7149 20.2692 40.0409 18.5592 40.0409 15.7512C40.0409 12.9072 41.7689 11.2512 44.4689 11.2512C47.1509 11.2512 48.8789 12.9072 48.8789 15.7512C48.8789 18.5592 47.2049 20.2692 44.4689 20.2692ZM44.4689 13.4832C43.2089 13.4832 42.5069 14.3652 42.5069 15.7332C42.5069 17.1192 43.1909 18.0192 44.4509 18.0192C45.7289 18.0192 46.4309 17.1192 46.4309 15.7332C46.4309 14.3652 45.7109 13.4832 44.4689 13.4832ZM52.0971 10.5852H49.5411V8.9832H52.0971V10.5852ZM52.0611 20.0172H49.5951V11.4852H52.0611V20.0172ZM55.5575 8.9832V20.0172H53.0915V8.9832H55.5575ZM64.3738 20.2692C61.0258 20.2692 58.9198 17.9472 58.9198 14.5812C58.9198 11.2332 61.1518 8.9652 64.4098 8.9652C67.3258 8.9652 69.2158 10.7832 69.5218 13.5732L67.0198 13.9872C66.7678 12.2952 65.9218 11.3052 64.3378 11.3052C62.4658 11.3052 61.5118 12.7812 61.5118 14.5812C61.5118 16.6152 62.4658 17.9472 64.3558 17.9472C65.9578 17.9472 66.7318 16.9212 67.0378 15.1572L69.5038 15.5172C69.2158 18.3072 67.2538 20.2692 64.3738 20.2692ZM72.6434 15.0132V20.0172H70.1774V8.9832H72.6434V13.8792H72.6614C73.0574 11.9172 74.0834 11.2512 75.4514 11.2512C77.3054 11.2512 78.0794 12.4752 78.0794 14.3112V20.0172H75.6314V15.0132C75.6314 14.1312 75.2354 13.4652 74.2094 13.4652C73.2194 13.4652 72.6434 14.0412 72.6434 15.0132ZM82.4212 18.2172C83.4652 18.2172 84.1492 17.6052 84.1492 16.7412V16.4892H82.3132C81.5932 16.4892 81.1612 16.8132 81.1612 17.2812C81.1612 17.8032 81.4852 18.2172 82.4212 18.2172ZM84.1492 20.0172V17.9292H84.1132C83.7352 19.3872 82.7992 20.1972 81.3592 20.1972C79.8832 20.1972 78.7672 19.3872 78.7672 17.7132C78.7672 16.1652 79.6852 15.1032 81.9352 15.1032H84.1492V14.7432C84.1492 13.8252 83.7532 13.3212 82.8172 13.3212C82.0072 13.3212 81.4852 13.6812 81.3232 14.6712L79.0192 14.3472C79.2352 12.5652 80.2792 11.2872 82.9252 11.2872C85.5172 11.2872 86.5972 12.5472 86.5972 14.7252V20.0172H84.1492ZM90.0106 15.0132V20.0172H87.5446V11.4852H90.0106V13.8792H90.0286C90.4246 11.9172 91.4506 11.2512 92.8186 11.2512C94.5466 11.2512 95.3386 12.3132 95.4286 13.9332H95.4646C95.8426 11.9352 96.7966 11.2512 98.2546 11.2512C100.109 11.2512 100.901 12.4752 100.901 14.3112V20.0172H98.4526V15.0132C98.4526 14.1312 98.0386 13.4652 97.0126 13.4652C96.0226 13.4652 95.4466 14.0412 95.4466 15.0132V20.0172H92.9986V15.0132C92.9986 14.1312 92.6026 13.4652 91.5766 13.4652C90.5866 13.4652 90.0106 14.0412 90.0106 15.0132ZM106.084 18.0552C107.308 18.0552 107.866 17.1912 107.866 15.7152C107.866 14.2932 107.326 13.4652 106.084 13.4652C104.95 13.4652 104.284 14.2392 104.284 15.6432V15.8052C104.284 17.1912 104.95 18.0552 106.084 18.0552ZM104.284 8.9832V13.7892H104.32C104.734 11.9892 105.706 11.2512 107.182 11.2512C109.234 11.2512 110.296 12.9252 110.296 15.6972C110.296 18.5772 109.198 20.2692 107.128 20.2692C105.652 20.2692 104.734 19.5132 104.32 17.7132H104.284V20.0172H101.818V8.9832H104.284ZM114.973 13.2852C113.893 13.2852 113.263 13.7892 113.101 14.9952H116.701C116.629 13.8612 116.071 13.2852 114.973 13.2852ZM115.009 20.2512C112.435 20.2512 110.635 18.7752 110.635 15.9312C110.635 12.9792 112.273 11.2512 115.045 11.2512C117.673 11.2512 118.951 12.9252 118.951 15.2472C118.951 15.6252 118.951 15.9132 118.915 16.3812H113.083C113.245 17.6052 113.893 18.1452 115.045 18.1452C116.179 18.1452 116.557 17.5872 116.755 16.9212L118.879 17.5152C118.465 19.0632 117.349 20.2512 115.009 20.2512ZM122.073 20.0172H119.607V11.4852H122.073V14.5272H122.109C122.523 11.9352 123.225 11.4852 124.413 11.4852H124.827V14.2932H123.891C122.505 14.2932 122.073 14.6712 122.073 15.9492V20.0172ZM132.149 20.2692C129.395 20.2692 127.721 18.5592 127.721 15.7512C127.721 12.9072 129.449 11.2512 132.149 11.2512C134.831 11.2512 136.559 12.9072 136.559 15.7512C136.559 18.5592 134.885 20.2692 132.149 20.2692ZM132.149 13.4832C130.889 13.4832 130.187 14.3652 130.187 15.7332C130.187 17.1192 130.871 18.0192 132.131 18.0192C133.409 18.0192 134.111 17.1192 134.111 15.7332C134.111 14.3652 133.391 13.4832 132.149 13.4832ZM140.283 11.3412V11.4852H142.101V13.5372H140.283V20.0172H137.835V13.5372H136.683V11.4852H137.835V11.3592C137.835 9.7212 138.807 8.5512 140.913 8.5512C141.561 8.5512 141.939 8.6052 142.281 8.6772L142.101 10.4052C141.813 10.3512 141.543 10.3332 141.273 10.3332C140.625 10.3332 140.283 10.6392 140.283 11.3412ZM147.985 15.4992V20.0172H145.519V9.2172H149.641L151.081 13.5012C151.333 14.2212 151.729 15.6612 152.053 17.0292H152.089C152.431 15.6612 152.827 14.2212 153.097 13.4112L154.519 9.2172H158.281V20.0172H155.689V15.4992C155.689 14.1852 155.743 12.6192 155.779 11.3232H155.761C155.365 12.7812 154.879 14.5632 154.303 16.2912L153.007 20.0172H150.667L149.407 16.2012C148.831 14.3652 148.381 12.7452 147.985 11.3232H147.967C147.985 12.6372 147.985 14.1672 147.985 15.4992ZM162.701 18.2172C163.745 18.2172 164.429 17.6052 164.429 16.7412V16.4892H162.593C161.873 16.4892 161.441 16.8132 161.441 17.2812C161.441 17.8032 161.765 18.2172 162.701 18.2172ZM164.429 20.0172V17.9292H164.393C164.015 19.3872 163.079 20.1972 161.639 20.1972C160.163 20.1972 159.047 19.3872 159.047 17.7132C159.047 16.1652 159.965 15.1032 162.215 15.1032H164.429V14.7432C164.429 13.8252 164.033 13.3212 163.097 13.3212C162.287 13.3212 161.765 13.6812 161.603 14.6712L159.299 14.3472C159.515 12.5652 160.559 11.2872 163.205 11.2872C165.797 11.2872 166.877 12.5472 166.877 14.7252V20.0172H164.429ZM168.294 17.3352V13.5372H167.304V11.4852H168.294V9.3432H170.742V11.4852H172.992V13.5372H170.742V16.8672C170.742 17.5512 170.994 17.8752 171.732 17.8752C172.11 17.8752 172.542 17.7492 172.848 17.6772L173.118 19.9452C172.47 20.1432 172.038 20.2692 171.102 20.2692C169.122 20.2692 168.294 18.9552 168.294 17.3352ZM176.126 15.0132V20.0172H173.66V8.9832H176.126V13.8792H176.144C176.54 11.9172 177.566 11.2512 178.934 11.2512C180.788 11.2512 181.562 12.4752 181.562 14.3112V20.0172H179.114V15.0132C179.114 14.1312 178.718 13.4652 177.692 13.4652C176.702 13.4652 176.126 14.0412 176.126 15.0132ZM186.516 13.2852C185.436 13.2852 184.806 13.7892 184.644 14.9952H188.244C188.172 13.8612 187.614 13.2852 186.516 13.2852ZM186.552 20.2512C183.978 20.2512 182.178 18.7752 182.178 15.9312C182.178 12.9792 183.816 11.2512 186.588 11.2512C189.216 11.2512 190.494 12.9252 190.494 15.2472C190.494 15.6252 190.494 15.9132 190.458 16.3812H184.626C184.788 17.6052 185.436 18.1452 186.588 18.1452C187.722 18.1452 188.1 17.5872 188.298 16.9212L190.422 17.5152C190.008 19.0632 188.892 20.2512 186.552 20.2512ZM193.616 15.0132V20.0172H191.15V11.4852H193.616V13.8792H193.634C194.03 11.9172 195.056 11.2512 196.424 11.2512C198.152 11.2512 198.944 12.3132 199.034 13.9332H199.07C199.448 11.9352 200.402 11.2512 201.86 11.2512C203.714 11.2512 204.506 12.4752 204.506 14.3112V20.0172H202.058V15.0132C202.058 14.1312 201.644 13.4652 200.618 13.4652C199.628 13.4652 199.052 14.0412 199.052 15.0132V20.0172H196.604V15.0132C196.604 14.1312 196.208 13.4652 195.182 13.4652C194.192 13.4652 193.616 14.0412 193.616 15.0132ZM208.826 18.2172C209.87 18.2172 210.554 17.6052 210.554 16.7412V16.4892H208.718C207.998 16.4892 207.566 16.8132 207.566 17.2812C207.566 17.8032 207.89 18.2172 208.826 18.2172ZM210.554 20.0172V17.9292H210.518C210.14 19.3872 209.204 20.1972 207.764 20.1972C206.288 20.1972 205.172 19.3872 205.172 17.7132C205.172 16.1652 206.09 15.1032 208.34 15.1032H210.554V14.7432C210.554 13.8252 210.158 13.3212 209.222 13.3212C208.412 13.3212 207.89 13.6812 207.728 14.6712L205.424 14.3472C205.64 12.5652 206.684 11.2872 209.33 11.2872C211.922 11.2872 213.002 12.5472 213.002 14.7252V20.0172H210.554ZM214.419 17.3352V13.5372H213.429V11.4852H214.419V9.3432H216.867V11.4852H219.117V13.5372H216.867V16.8672C216.867 17.5512 217.119 17.8752 217.857 17.8752C218.235 17.8752 218.667 17.7492 218.973 17.6772L219.243 19.9452C218.595 20.1432 218.163 20.2692 217.227 20.2692C215.247 20.2692 214.419 18.9552 214.419 17.3352ZM222.359 10.5852H219.803V8.9832H222.359V10.5852ZM222.323 20.0172H219.857V11.4852H222.323V20.0172ZM229.221 15.1932C229.023 14.2032 228.537 13.4832 227.439 13.4832C226.341 13.4832 225.549 14.1672 225.549 15.7332C225.549 17.2632 226.305 18.0192 227.457 18.0192C228.591 18.0192 229.023 17.2452 229.239 16.1652L231.597 16.6152C231.309 18.8472 230.067 20.2692 227.511 20.2692C224.811 20.2692 223.029 18.7572 223.029 15.8052C223.029 12.9252 224.775 11.2512 227.457 11.2512C230.139 11.2512 231.255 12.5652 231.597 14.8512L229.221 15.1932ZM235.865 20.2692C232.985 20.2692 232.103 18.9552 231.851 17.3892L234.137 16.9392C234.371 17.8932 234.875 18.4512 235.919 18.4512C236.711 18.4512 237.107 18.1632 237.125 17.6412C237.125 17.1732 236.801 16.9032 235.271 16.5972C232.877 16.0932 232.067 15.2832 232.067 13.8792C232.067 12.2592 233.237 11.2512 235.631 11.2512C238.079 11.2512 239.087 12.2592 239.411 13.8432L237.071 14.3652C236.873 13.4472 236.459 13.0152 235.613 13.0152C234.893 13.0152 234.497 13.3032 234.497 13.7712C234.497 14.2392 234.713 14.5632 236.387 14.8692C238.835 15.3552 239.537 16.2732 239.537 17.5512C239.537 19.2252 238.421 20.2692 235.865 20.2692ZM247.022 11.5212H245.528V14.4552H247.058C248.174 14.4552 248.75 13.9872 248.75 12.9792C248.75 11.9892 248.21 11.5212 247.022 11.5212ZM247.346 16.7592H245.528V20.0172H242.936V9.2172H247.256C250.064 9.2172 251.45 10.4952 251.45 12.9792C251.45 15.0852 249.974 16.7592 247.346 16.7592ZM257.26 20.0172H254.398L251.212 11.4852H253.876L254.938 14.8332C255.244 15.7692 255.55 16.7052 255.82 17.6232H255.892C256.18 16.7232 256.468 15.7692 256.774 14.8332L257.872 11.4852H260.428L257.26 20.0172ZM261.37 17.3352V13.5372H260.38V11.4852H261.37V9.3432H263.818V11.4852H266.068V13.5372H263.818V16.8672C263.818 17.5512 264.07 17.8752 264.808 17.8752C265.186 17.8752 265.618 17.7492 265.924 17.6772L266.194 19.9452C265.546 20.1432 265.114 20.2692 264.178 20.2692C262.198 20.2692 261.37 18.9552 261.37 17.3352ZM272.089 9.2172V17.5692H276.733V20.0172H269.497V9.2172H272.089ZM277.208 17.3352V13.5372H276.218V11.4852H277.208V9.3432H279.656V11.4852H281.906V13.5372H279.656V16.8672C279.656 17.5512 279.908 17.8752 280.646 17.8752C281.024 17.8752 281.456 17.7492 281.762 17.6772L282.032 19.9452C281.384 20.1432 280.952 20.2692 280.016 20.2692C278.036 20.2692 277.208 18.9552 277.208 17.3352ZM286.392 18.0552C287.508 18.0552 288.192 17.2632 288.192 15.8592V15.6972C288.192 14.3112 287.508 13.4472 286.392 13.4472C285.15 13.4472 284.592 14.3112 284.592 15.8052C284.592 17.2092 285.132 18.0552 286.392 18.0552ZM288.192 20.0172V17.7132H288.138C287.724 19.5132 286.752 20.2692 285.294 20.2692C283.224 20.2692 282.162 18.5772 282.162 15.8052C282.162 12.9252 283.278 11.2332 285.33 11.2512C286.806 11.2332 287.742 11.9892 288.156 13.8072H288.192V8.9832H290.64V20.0172H288.192Z" fill="#14A4F5"/>
</svg>
