<svg width="175" height="40" viewBox="0 0 175 40" fill="none" xmlns="http://www.w3.org/2000/svg">
<path d="M11.016 35.0454L10.302 35.0034C10.316 34.9054 10.344 34.8354 10.372 34.7514C10.316 34.7234 10.274 34.7094 10.204 34.6674C10.218 34.5134 10.204 34.3314 10.246 34.1914C10.386 33.7854 10.554 33.4074 10.722 33.0154C11.044 32.2454 11.408 31.4754 11.702 30.6914C12.01 29.8514 12.29 29.0114 12.556 28.1574C12.626 27.9614 12.794 27.8494 12.85 27.6674L13.438 25.3434C13.438 25.3014 13.424 25.2594 13.41 25.2034L13.284 25.2454C13.424 24.2374 13.494 23.2294 13.466 22.2214C13.424 21.1994 13.06 20.2754 12.822 19.2954C13.368 19.8134 13.648 20.4294 13.746 21.1574C13.83 21.8154 13.83 22.4594 13.816 23.1034C13.816 23.2994 13.774 23.4954 13.746 23.6914C13.746 23.7614 13.704 23.8174 13.718 23.8874C13.76 24.4894 13.662 25.0914 13.606 25.6794C13.564 26.1134 13.494 26.5474 13.466 26.9814C13.634 26.2254 13.872 25.4974 13.914 24.7134C13.956 24.0554 14.054 23.3834 14.068 22.7254C14.068 22.2774 13.956 21.8154 13.928 21.3674C13.9 20.9334 13.83 20.5274 13.69 20.1074C13.564 19.7574 13.41 19.4214 13.2 19.0994C13.228 19.2534 13.242 19.4074 13.256 19.5614C12.962 18.5814 12.388 17.7694 11.59 17.1254C11.198 16.8034 10.764 16.5094 10.246 16.4114C10.624 16.6914 11.016 16.9294 11.366 17.2374C11.716 17.5454 12.01 17.9094 12.276 18.3014C12.052 18.1054 11.828 17.8814 11.576 17.6994C11.324 17.5034 11.058 17.3074 10.778 17.1394C10.512 16.9714 10.218 16.8174 9.924 16.6494C9.854 16.7754 9.798 16.8454 9.77 16.9294C9.294 18.1194 8.832 19.3094 8.496 20.5414C8.384 20.9474 8.23 21.3394 8.076 21.7314C7.978 21.9694 7.922 21.9834 7.6 21.9414L7.404 21.6054C7.32 21.6614 7.25 21.7174 7.18 21.7594C7.166 21.7594 7.152 21.7454 7.152 21.7314C7.152 21.7314 7.166 21.7174 7.166 21.7034C7.25 20.6674 7.684 19.7294 7.978 18.7494C8.188 18.0354 8.482 17.3354 8.734 16.6354C8.776 16.5234 8.818 16.4114 8.86 16.2714C8.608 16.2014 8.384 16.1314 8.16 16.0894C7.306 15.9354 6.452 15.7814 5.598 15.6554C5.192 15.5994 4.758 15.6414 4.352 15.6274C3.484 15.5994 2.63 15.5574 1.776 15.5154C1.482 15.5014 1.174 15.4874 0.88 15.4314C0.698 15.3894 0.516 15.3054 0.278 15.2214C0.488 15.0114 0.194 14.8854 0.306 14.6754C0.39 14.5214 0.376 14.3114 0.418 14.0874C0.698 14.0034 0.964 13.9054 1.23 13.8774C2.154 13.7514 3.078 13.6534 4.016 13.5414C5.22 13.4154 6.424 13.3034 7.628 13.1774C8.482 13.0934 9.35 12.9954 10.246 12.8974C10.302 12.7714 10.372 12.6454 10.428 12.5194C10.876 11.5394 11.31 10.5594 11.772 9.57942C11.968 9.17342 12.192 8.79542 12.416 8.40342C12.5 8.26342 12.612 8.15142 12.71 8.02542C12.934 8.13742 13.13 8.24942 13.326 8.36142C13.382 8.48742 13.424 8.58542 13.48 8.73942C13.452 8.82342 13.438 8.93542 13.368 9.03342C12.766 9.83142 12.416 10.7554 11.996 11.6514C11.828 12.0154 11.66 12.3934 11.492 12.7994C11.59 12.8134 11.674 12.8414 11.758 12.8414C12.108 12.8134 12.472 12.7994 12.808 12.7294C13.606 12.6034 14.376 12.4494 15.16 12.3094C15.3 12.2814 15.468 12.2254 15.58 12.4074C15.594 12.4494 15.706 12.4354 15.762 12.4354C16.462 12.3794 17.162 12.3654 17.848 12.2114C18.366 12.0994 18.898 12.0434 19.416 11.9594C19.514 11.9454 19.612 11.9174 19.724 11.8894C19.864 11.5534 20.004 11.2454 20.13 10.9094C20.27 10.5734 20.438 10.2514 20.634 9.94342C20.788 9.67742 20.998 9.43942 20.956 9.08942C20.942 8.94942 21.04 8.80942 21.096 8.66942C21.712 7.14342 22.342 5.60342 22.958 4.06342C23.126 3.65742 23.28 3.25142 23.42 2.84542C23.56 2.49542 23.686 2.13142 23.742 1.75342C23.84 1.17942 24.162 0.675416 24.414 0.129416L25.086 0.479417C25.016 1.24942 24.722 1.94942 24.764 2.73342C24.736 2.74742 24.68 2.76142 24.568 2.78942L24.036 4.17542C24.022 3.51742 24.218 2.91542 24.484 2.27142C24.106 2.38342 24.092 2.67742 24.008 2.88742C23.812 3.29342 23.546 3.65742 23.504 4.14742C23.476 4.49742 23.28 4.83342 23.154 5.18342C23.084 5.40742 23.042 5.63142 22.986 5.85542C22.986 5.91142 23 5.95342 23.014 6.03742C23.084 5.91142 23.126 5.79942 23.21 5.63142C22.734 7.71742 21.838 9.57942 21.054 11.5394C21.614 11.4834 22.09 11.4414 22.566 11.3854L25.59 11.0914C26.57 11.0074 27.536 10.9374 28.502 10.8534C28.67 10.8394 28.852 10.8254 29.02 10.8534C29.482 10.9094 29.93 10.8674 30.392 10.8674C30.658 10.8674 30.84 10.6714 31.12 10.6714C31.554 10.6854 32.002 10.5874 32.45 10.5734C34.088 10.4894 35.74 10.3914 37.378 10.4614C37.686 10.4754 37.98 10.5314 38.274 10.5874C38.456 10.6154 38.638 10.6434 38.736 10.8394C38.764 10.8954 38.876 10.9514 38.946 10.9514C39.268 10.9794 39.38 11.2594 39.534 11.4834C39.562 11.5254 39.59 11.6094 39.576 11.6654C39.534 11.8894 39.506 12.1274 39.352 12.3514C39.268 12.2254 39.212 12.1274 39.17 12.0434L38.47 12.1274C38.428 11.5254 37.938 11.6234 37.588 11.5674C37.266 11.5254 36.93 11.5534 36.594 11.5534H35.46L33.178 11.6374C32.716 11.6654 32.254 11.6514 31.806 11.7354C31.288 11.8194 30.756 11.8334 30.252 11.9594C29.51 12.1414 28.768 12.1834 28.026 12.2534C25.912 12.4774 23.812 12.6734 21.698 12.8834C21.39 12.9114 21.096 12.8974 20.788 12.9114L20.494 12.9534C20.34 13.2474 20.2 13.5414 20.06 13.8214C19.822 13.7654 19.85 13.9614 19.78 14.0734C19.836 14.1154 19.864 14.1574 19.906 14.1854C19.71 14.7034 19.528 15.2214 19.318 15.7394C17.904 19.2254 16.49 22.7114 15.062 26.1974C14.852 26.7154 14.6 27.2194 14.32 27.7234C14.418 27.3454 14.53 26.9534 14.642 26.5754C14.614 26.5754 14.6 26.5614 14.572 26.5614C14.376 27.0234 14.152 27.4714 13.984 27.9334C13.858 28.2834 13.816 28.6474 13.732 29.0114C13.508 29.9214 13.214 30.8174 12.836 31.6994C12.542 32.3574 12.262 33.0154 11.856 33.6174C11.688 33.8694 11.534 34.1214 11.478 34.4294C11.436 34.6954 11.226 34.8914 11.016 35.0454ZM14.138 26.4634C14.502 25.7214 14.754 24.9374 14.936 24.1394C15.034 23.7194 15.118 23.2854 15.258 22.8654C15.398 22.4174 15.608 21.9974 15.79 21.5634C15.944 21.1994 16.126 20.8494 16.252 20.4854C16.378 20.1074 16.672 19.7854 16.7 19.3654C16.7 19.3234 16.756 19.2814 16.77 19.2394C16.84 19.1134 16.896 18.9874 16.952 18.8474C17.092 18.5254 17.246 18.1894 17.372 17.8534C17.568 17.3494 17.75 16.8314 17.932 16.3274C18.016 16.0894 18.072 15.8374 18.156 15.6134C18.478 14.8294 18.8 14.0454 19.15 13.2194C19.01 13.1914 18.926 13.1634 18.842 13.1774C18.492 13.2054 18.128 13.2474 17.778 13.3174C17.092 13.4434 16.392 13.5834 15.678 13.5554C15.328 13.5414 14.978 13.5834 14.628 13.6254C14.334 13.6674 14.04 13.7514 13.746 13.8074C13.242 13.8914 12.724 13.9614 12.22 14.0314C11.786 14.0874 11.338 14.1294 10.89 14.1854L10.232 15.7674C10.386 15.8514 10.498 15.9214 10.61 15.9494C11.086 16.0894 11.492 16.3554 11.87 16.6494C12.08 16.8174 12.248 17.0414 12.43 17.2374C12.682 17.5174 12.878 17.8394 13.158 18.0634C13.326 18.2034 13.48 18.3434 13.578 18.5254C13.774 18.9034 13.97 19.2954 14.124 19.7014C14.432 20.4994 14.586 21.3394 14.6 22.2074C14.614 22.9354 14.614 23.6774 14.572 24.4054C14.544 24.8114 14.418 25.2174 14.334 25.5954C14.334 25.5534 14.306 25.4834 14.292 25.4134C14.236 25.5954 14.278 25.7774 14.264 25.9454C14.264 26.1134 14.18 26.2814 14.138 26.4634ZM5.164 14.2414C5.472 14.1994 5.78 14.1574 6.102 14.1294C6.62 14.0734 7.138 14.0034 7.656 13.9894C8.202 13.9614 8.748 14.0034 9.308 14.0034C9.476 14.0034 9.658 13.9614 9.826 13.9334L9.924 13.6534C9.868 13.6394 9.84 13.6114 9.798 13.6114C9.434 13.6674 9.084 13.7234 8.72 13.7654C8.16 13.8214 7.586 13.8774 7.012 13.9194C6.466 13.9614 5.906 13.9894 5.36 14.0034C5.122 14.0174 4.898 14.0734 4.688 14.1994C4.856 14.2414 5.01 14.2554 5.164 14.2414ZM9.238 15.3334C9.504 14.8714 9.602 14.5494 9.602 14.2694C9.322 14.2274 9.056 14.2694 8.79 14.3254C8.496 14.3954 8.202 14.4654 7.908 14.4934C7.278 14.5634 6.648 14.6194 5.948 14.6894C6.578 14.7874 7.124 14.8714 7.656 14.9834C8.202 15.0814 8.72 15.2214 9.238 15.3334ZM9.826 15.5434C9.966 15.1794 10.092 14.8574 10.218 14.5494L10.134 14.5074C10.008 14.8014 9.868 15.0814 9.742 15.3754C9.742 15.4034 9.784 15.4594 9.826 15.5434ZM8.188 15.6274C8.23 15.6274 8.272 15.5854 8.356 15.5434C8.258 15.5154 8.202 15.4874 8.146 15.4734C8.314 15.4734 8.482 15.5154 8.65 15.5154C8.818 15.5294 8.958 15.6974 9.168 15.5434C8.244 15.2774 7.32 15.1374 6.396 15.0394C5.948 14.9834 5.514 14.9274 5.066 14.8994C4.73 14.8714 4.394 14.8854 4.058 14.8854V14.9974C4.184 15.0114 4.31 15.0114 4.422 15.0114C5.024 15.0814 5.612 15.1374 6.214 15.1934C6.746 15.2354 7.264 15.3194 7.782 15.5014L8.188 15.6274ZM17.918 18.3014C18.142 17.8954 18.31 17.4754 18.478 17.0554C18.548 16.8594 18.59 16.6634 18.646 16.4674C18.772 16.3134 18.898 16.1734 18.814 15.9494C18.758 16.1174 18.702 16.2854 18.632 16.4534C18.324 16.9014 18.142 17.3914 18.002 17.9094L17.918 18.3014ZM9.322 16.8454C9.378 16.7054 9.406 16.6074 9.448 16.5094C9.294 16.6354 9.294 16.6354 9.322 16.8454ZM24.6949 20.2334C24.3449 20.2334 24.0369 20.0794 23.7149 19.9674C23.7429 19.9254 23.7709 19.8974 23.7989 19.8414C23.5189 19.6454 23.3649 19.3234 23.0149 19.2114C22.9309 19.1834 22.8749 19.0714 22.8049 19.0014C22.7069 18.8894 22.6089 18.7634 22.5249 18.6514C22.4829 18.5954 22.4689 18.5254 22.4549 18.4694C22.4409 18.3434 22.4409 18.2314 22.4269 18.1054C22.1609 18.0914 21.8529 18.3154 21.6149 17.9794C21.6289 17.8814 21.6289 17.7554 21.6429 17.6154C21.7409 17.5454 21.8389 17.4754 21.9369 17.3914L21.9229 17.4054C22.2169 17.4194 22.5249 17.4334 22.7909 17.2654C22.8749 17.2234 22.9729 17.1814 23.0289 17.1114C23.2949 16.8174 23.6029 16.5654 23.9389 16.3554C24.2329 16.1454 24.5129 15.9214 24.7229 15.6274C24.8069 15.5014 24.9049 15.4034 25.0169 15.3194C25.2549 15.1374 25.4929 14.9694 25.7309 14.8154C26.0249 14.6194 26.3329 14.4514 26.6409 14.2834C26.8369 14.1714 27.0329 14.1714 27.2289 14.2834C27.3549 14.3534 27.4809 14.4094 27.5929 14.4654C27.5369 14.5074 27.3969 14.3814 27.4109 14.6194L27.5929 14.4654C27.9989 14.6754 28.0829 14.9414 27.9009 15.3474C27.7889 15.5994 27.6209 15.7954 27.4249 15.9774C26.8789 16.4814 26.2489 16.8734 25.6049 17.2514C24.9749 17.6154 24.2889 17.8394 23.6449 18.1194C23.5749 18.1474 23.4909 18.1754 23.4349 18.2034C23.4489 18.9454 23.8689 19.2814 24.9329 19.3654C24.8909 19.3234 24.8769 19.2814 24.8349 19.2394C25.1289 19.1834 25.4089 19.1554 25.6749 19.0714C25.9409 19.0014 26.2069 18.8754 26.5009 18.7774C26.6129 18.8474 26.7529 18.9454 26.8929 19.0574C27.1589 19.2674 27.1589 19.6174 26.8789 19.7714C26.3609 20.0794 25.8009 20.2334 25.1989 20.2334H24.6949ZM24.3589 16.8874C24.8909 16.6914 25.5069 16.2994 25.7589 16.0334L25.7169 15.8654C25.1989 16.1594 24.7509 16.4954 24.3589 16.8874ZM23.1129 18.5254C23.1269 18.4134 23.1409 18.3434 23.1549 18.2734C23.0289 18.3294 23.0709 18.4134 23.1129 18.5254ZM35.2969 20.6674C35.1149 20.6534 35.0309 20.5274 35.0169 20.3454L34.8069 20.4294C34.7509 20.3734 34.7089 20.3174 34.6389 20.2334L35.2689 18.2594C35.4229 17.7974 35.5769 17.3354 35.7169 16.8734L35.8149 16.4674C35.5629 16.5094 35.3809 16.6074 35.2269 16.7334C34.7929 17.0554 34.3729 17.4194 33.9529 17.7554C33.5889 18.0354 33.2249 18.3154 32.8469 18.5674C32.6929 18.6794 32.4829 18.7774 32.3289 18.7494C32.1189 18.7074 31.9229 18.5534 31.7409 18.4274C31.6009 18.3434 31.6289 18.1894 31.6709 18.0494C31.7969 17.6014 31.9089 17.1394 32.0349 16.6914C32.0489 16.6494 32.0489 16.5934 32.0629 16.4814C31.7129 16.7054 31.4189 16.8874 31.1249 17.0834C30.3129 17.6574 29.5569 18.3154 28.8849 19.0434C28.8289 19.1134 28.7729 19.1834 28.7029 19.2394C28.4789 19.4214 28.2409 19.3374 28.1709 19.0434C28.1569 18.9454 28.1289 18.8474 28.1149 18.7494L27.8909 18.6654C27.9049 18.6094 27.9049 18.5534 27.9329 18.5114C28.2689 17.8814 28.6189 17.2654 28.9409 16.6354C29.2349 16.0614 29.5149 15.4734 29.8089 14.8994C29.8509 14.8014 29.9209 14.7174 29.9909 14.6194C30.4389 14.9834 30.8729 15.3054 30.4249 15.9914C30.4669 15.9774 30.4949 15.9774 30.5369 15.9774L30.7469 15.8654C31.0129 15.6974 31.2789 15.5154 31.5589 15.3614C31.7409 15.2634 31.9229 15.1934 32.1189 15.1374C32.2869 15.0954 32.4129 15.1654 32.5669 15.2634C33.0289 15.5714 33.2249 15.9494 33.0849 16.4814C33.0569 16.5794 33.0849 16.6774 33.0989 16.8314L33.3369 16.6914C33.8829 16.3134 34.4149 15.9214 34.9609 15.5434C35.1709 15.4034 35.4229 15.2774 35.6609 15.1794C35.9129 15.0674 36.1649 15.1094 36.3609 15.3194C36.4029 15.3614 36.4589 15.4174 36.5009 15.4454C36.8509 15.6974 36.8789 16.0334 36.8369 16.4254C36.7529 17.2374 36.5149 18.0214 36.2489 18.7914C36.1789 18.9734 36.0949 19.1554 36.0109 19.3514L35.8009 19.9534C35.7449 20.1214 35.6889 20.2894 35.6189 20.4574C35.5629 20.5974 35.4369 20.6814 35.2969 20.6674ZM35.7869 18.8474C36.0669 18.4694 36.1509 18.0774 36.2069 17.6994C36.0809 17.8814 35.9829 18.0774 35.8569 18.2734C35.7589 18.4274 35.7449 18.5954 35.7869 18.8474ZM28.1849 18.5954C28.2129 18.5814 28.2409 18.5534 28.3389 18.4834C28.2269 18.5114 28.1989 18.5254 28.1709 18.5394L28.1849 18.5954ZM35.9569 21.4374C35.9149 21.3254 35.9009 21.2694 35.8589 21.1854C35.8029 21.2554 35.7609 21.3114 35.6909 21.4234C35.6489 21.3114 35.5929 21.2414 35.6069 21.1854C35.6629 21.0454 35.7329 20.9194 35.8029 20.7794C35.7329 20.7374 35.6769 20.7094 35.5929 20.6814C35.7329 20.4994 35.8589 20.3314 35.9709 20.1494C36.3209 19.5754 36.6429 18.9874 36.9929 18.3994C37.2309 18.0074 37.4969 17.6154 37.7489 17.2234C37.7769 17.1814 37.8049 17.1394 37.8189 17.0834C37.9589 16.7474 38.0849 16.3974 38.2389 16.0614C38.7009 14.9554 39.1769 13.8354 39.6529 12.7294C39.8629 12.2114 40.0869 11.7074 40.2969 11.1894C40.4509 10.8114 40.5769 10.4334 40.6889 10.0554C40.9829 9.07542 41.3889 8.13742 41.5849 7.12942C41.6269 6.96142 41.6549 6.77942 41.6829 6.61142C41.6969 6.54142 41.7109 6.47142 41.6829 6.42942C41.4169 5.98142 41.6829 5.64542 41.8789 5.26742C42.0189 5.36542 42.1309 5.42142 42.2289 5.49142C42.5229 5.67342 42.6769 5.93942 42.7049 6.28942C42.7329 6.84942 42.6209 7.40942 42.4389 7.92742C41.8929 9.50942 41.3329 11.0774 40.7589 12.6454C40.3669 13.6954 39.9469 14.7314 39.5129 15.7534C39.0649 16.7894 38.5469 17.7834 37.9729 18.7494C37.5389 19.4774 37.1329 20.2194 36.6989 20.9614C36.6429 21.0594 36.5729 21.1434 36.4749 21.2274C36.5309 20.9334 36.7549 20.7374 36.8949 20.4854C37.0209 20.2194 37.2029 19.9674 37.3429 19.7014C37.4829 19.4634 37.5949 19.1974 37.7629 18.8894C37.6509 18.9594 37.6089 18.9874 37.4969 19.0434C37.5669 18.8474 37.6089 18.7074 37.6789 18.5674L38.8269 16.3274C38.8829 16.2434 38.9109 16.1594 38.9669 16.0614C38.7849 16.0614 38.7709 16.2154 38.7149 16.2994C38.3369 17.0414 37.9729 17.7834 37.5669 18.5254C37.0489 19.4914 36.5169 20.4434 35.9569 21.4374ZM40.7449 12.3654C40.7589 12.3514 40.7589 12.3234 40.7729 12.3094L40.7169 12.2954C40.7029 12.3094 40.7029 12.3374 40.6889 12.3514C40.7029 12.3654 40.7309 12.3794 40.7449 12.3654ZM41.7488 17.4754C41.2308 17.8394 40.8808 18.3574 40.4748 18.8334C40.3628 18.9734 40.2928 19.1554 40.1528 19.3934C40.4888 19.2114 40.7548 19.0574 41.0068 18.8614C41.9168 18.1754 42.8268 17.4894 43.7508 16.8034L44.4368 16.2574C44.5208 16.2014 44.6188 16.1734 44.7168 16.1174L44.9268 16.5934C45.1088 16.5514 45.2488 16.3554 45.4588 16.4954C45.7108 16.8454 45.5848 17.1954 45.4588 17.5454C45.3748 17.7694 45.2628 17.9794 45.1508 18.1894L43.9748 20.5554C43.9328 20.6394 43.8768 20.7234 43.8208 20.8214C43.6948 20.6674 43.7928 20.5274 43.8348 20.4014C43.9048 20.2334 43.9748 20.0654 44.0588 19.8974C44.2408 19.6454 44.3948 19.3794 44.4928 19.0854C44.2968 19.3234 44.0448 19.5474 44.0588 19.8974C43.8768 19.9814 43.8208 20.1634 43.7368 20.3314C43.6388 20.5414 43.5408 20.7514 43.4148 21.0034L43.1908 20.7514C43.1488 20.7794 43.0928 20.8074 43.0088 20.8494C42.9528 20.7934 42.8968 20.7374 42.8268 20.6814C42.8968 20.4294 43.0508 20.2194 42.9808 19.9394C42.9668 19.8694 43.0368 19.7854 43.0788 19.7014L43.7368 18.4134C43.7648 18.3434 43.7928 18.2594 43.8628 18.1054L42.6588 18.9594C42.6168 18.9594 42.5748 18.9594 42.5328 18.9734C42.3928 18.9314 42.3648 18.9454 42.2528 19.1274C42.3088 19.1134 42.3928 19.0994 42.4628 19.0994C42.5748 19.1414 42.6448 19.0854 42.7008 19.0014C42.8268 18.9454 42.9528 18.9034 43.1488 18.8334C42.5328 19.3794 41.9028 19.7854 41.2728 20.1774C40.9368 20.3874 40.5868 20.5554 40.2368 20.7374C39.8028 20.9614 39.3688 20.8914 38.9488 20.7234C38.7388 20.6394 38.6548 20.4714 38.6688 20.2334C38.6828 19.7434 38.8368 19.2954 39.0888 18.9034C39.3968 18.4554 39.7048 18.0214 40.0548 17.6154C40.7968 16.7614 41.6228 15.9914 42.5608 15.3474C42.8968 15.1234 43.2748 14.9694 43.6668 14.8714C43.8348 14.8294 43.9748 14.7174 44.1428 14.6334C44.3108 14.5494 44.4788 14.4514 44.6608 14.4094C44.9548 14.3254 45.1508 14.5214 45.3328 14.7314C45.2768 14.7174 45.2208 14.6894 45.1368 14.6614C45.1228 14.7314 45.0948 14.8014 45.0808 14.8994C45.2068 14.9134 45.3328 14.9414 45.4448 14.9554C45.7248 15.2354 45.8088 15.5434 45.6408 15.9214C45.3328 16.0614 45.3048 16.0474 45.1228 15.7814C45.0668 15.8094 44.9968 15.8374 44.9268 15.8794C44.8848 15.8374 44.8288 15.8094 44.7868 15.7674C44.7588 15.7254 44.7448 15.6834 44.7028 15.5994C44.5208 15.6834 44.3388 15.7394 44.1848 15.8374C43.6528 16.1734 43.1068 16.5234 42.5888 16.8734C42.2948 17.0554 42.0288 17.2794 41.7488 17.4754ZM42.2108 19.1554L42.0988 19.1974C42.1128 19.2114 42.1268 19.2254 42.1268 19.2534L42.2108 19.1554ZM40.5448 19.7154L40.2228 19.8694C40.3068 19.8974 40.3628 19.9254 40.4188 19.9394C40.4468 19.8834 40.4748 19.8274 40.5448 19.7154ZM39.7048 20.1494C39.9288 20.2334 39.9988 20.2054 39.9568 20.0934C39.8728 20.1214 39.7888 20.1354 39.7048 20.1494ZM48.2224 21.2414C48.1804 21.2134 48.1524 21.1714 48.1244 21.1294L47.9844 21.2274C47.7324 21.1574 47.7464 20.9614 47.7464 20.7654C47.7604 20.1634 47.6204 19.5754 47.3124 19.0574C47.1024 18.6934 46.8364 18.3714 46.5844 18.0214C46.4724 17.8674 46.3464 17.7274 46.2204 17.5874C45.8704 17.1674 45.8564 16.7194 46.1224 16.2434C46.1364 16.2294 46.1644 16.2014 46.1644 16.1874C46.2484 15.6554 46.6684 15.4174 47.0744 15.2354C47.6764 14.9694 48.3204 14.7734 48.9364 14.5494C48.9644 14.5354 49.0064 14.5494 49.0764 14.5494C48.7824 14.8574 48.3904 14.9554 48.0964 15.2074C48.4324 15.0954 48.7824 14.9834 49.1184 14.8574C49.1744 14.8434 49.2024 14.8014 49.2584 14.7874C49.8184 14.6754 50.0564 14.2414 50.2524 13.7654L50.4064 13.5974C50.3924 13.5834 50.3784 13.5834 50.3784 13.5694C50.3364 13.5834 50.2944 13.6114 50.2524 13.6254C50.3364 13.4294 50.4064 13.2194 50.5044 13.0374C51.1904 11.7634 51.8764 10.4894 52.5764 9.21542C52.6464 9.08942 52.7304 8.99142 52.8284 8.83742C52.9124 8.96342 52.9824 9.04742 53.0524 9.15942C53.1224 9.08942 53.1924 9.00542 53.2624 8.92142C53.4864 8.99142 53.6684 9.13142 53.6544 9.38342C53.6404 9.56542 53.5704 9.76142 53.4864 9.91542C53.2204 10.3774 52.8984 10.8254 52.6464 11.2874C52.2124 12.0714 51.8204 12.8834 51.4004 13.6814C51.3444 13.7934 51.3024 13.9194 51.2324 14.0594C51.4704 14.0874 51.6804 14.1154 51.8904 14.1574C52.5344 14.2414 52.9544 14.6474 53.3184 15.1514C53.3464 15.1934 53.3604 15.2634 53.3604 15.3194C53.3604 15.3894 53.3324 15.4594 53.3324 15.5294C53.3324 15.5994 53.3604 15.6554 53.3884 15.7254C53.2344 15.8794 53.0804 15.9214 52.9124 15.7674C52.8424 15.7114 52.7864 15.6834 52.6884 15.7114C52.6184 15.7254 52.5064 15.6274 52.4504 15.5434C52.3104 15.3194 52.1144 15.2494 51.8624 15.2774C51.4564 15.3054 51.0364 15.3474 50.5884 15.3894C50.3224 16.0614 50.0704 16.7054 49.8324 17.3494C49.4264 18.4834 49.0344 19.6174 48.8384 20.7934C48.8244 20.9054 48.7824 21.0174 48.7404 21.1294C48.6284 21.3954 48.4464 21.4374 48.2224 21.2414ZM48.3204 18.6374L49.2444 15.8094C48.3064 15.9634 47.2844 16.4674 47.0324 16.9014C47.4524 17.4754 47.8864 18.0494 48.3204 18.6374ZM46.4724 17.1674C46.5144 17.0274 46.5704 16.8734 46.4164 16.7194C46.2344 16.9014 46.3744 17.0274 46.4724 17.1674ZM55.202 17.4754C54.684 17.8394 54.334 18.3574 53.928 18.8334C53.816 18.9734 53.746 19.1554 53.606 19.3934C53.942 19.2114 54.208 19.0574 54.46 18.8614C55.37 18.1754 56.28 17.4894 57.204 16.8034L57.89 16.2574C57.974 16.2014 58.072 16.1734 58.17 16.1174L58.38 16.5934C58.562 16.5514 58.702 16.3554 58.912 16.4954C59.164 16.8454 59.038 17.1954 58.912 17.5454C58.828 17.7694 58.716 17.9794 58.604 18.1894L57.428 20.5554C57.386 20.6394 57.33 20.7234 57.274 20.8214C57.148 20.6674 57.246 20.5274 57.288 20.4014C57.358 20.2334 57.428 20.0654 57.512 19.8974C57.694 19.6454 57.848 19.3794 57.946 19.0854C57.75 19.3234 57.498 19.5474 57.512 19.8974C57.33 19.9814 57.274 20.1634 57.19 20.3314C57.092 20.5414 56.994 20.7514 56.868 21.0034L56.644 20.7514C56.602 20.7794 56.546 20.8074 56.462 20.8494C56.406 20.7934 56.35 20.7374 56.28 20.6814C56.35 20.4294 56.504 20.2194 56.434 19.9394C56.42 19.8694 56.49 19.7854 56.532 19.7014L57.19 18.4134C57.218 18.3434 57.246 18.2594 57.316 18.1054L56.112 18.9594C56.07 18.9594 56.028 18.9594 55.986 18.9734C55.846 18.9314 55.818 18.9454 55.706 19.1274C55.762 19.1134 55.846 19.0994 55.916 19.0994C56.028 19.1414 56.098 19.0854 56.154 19.0014C56.28 18.9454 56.406 18.9034 56.602 18.8334C55.986 19.3794 55.356 19.7854 54.726 20.1774C54.39 20.3874 54.04 20.5554 53.69 20.7374C53.256 20.9614 52.822 20.8914 52.402 20.7234C52.192 20.6394 52.108 20.4714 52.122 20.2334C52.136 19.7434 52.29 19.2954 52.542 18.9034C52.85 18.4554 53.158 18.0214 53.508 17.6154C54.25 16.7614 55.076 15.9914 56.014 15.3474C56.35 15.1234 56.728 14.9694 57.12 14.8714C57.288 14.8294 57.428 14.7174 57.596 14.6334C57.764 14.5494 57.932 14.4514 58.114 14.4094C58.408 14.3254 58.604 14.5214 58.786 14.7314C58.73 14.7174 58.674 14.6894 58.59 14.6614C58.576 14.7314 58.548 14.8014 58.534 14.8994C58.66 14.9134 58.786 14.9414 58.898 14.9554C59.178 15.2354 59.262 15.5434 59.094 15.9214C58.786 16.0614 58.758 16.0474 58.576 15.7814C58.52 15.8094 58.45 15.8374 58.38 15.8794C58.338 15.8374 58.282 15.8094 58.24 15.7674C58.212 15.7254 58.198 15.6834 58.156 15.5994C57.974 15.6834 57.792 15.7394 57.638 15.8374C57.106 16.1734 56.56 16.5234 56.042 16.8734C55.748 17.0554 55.482 17.2794 55.202 17.4754ZM55.664 19.1554L55.552 19.1974C55.566 19.2114 55.58 19.2254 55.58 19.2534L55.664 19.1554ZM53.998 19.7154L53.676 19.8694C53.76 19.8974 53.816 19.9254 53.872 19.9394C53.9 19.8834 53.928 19.8274 53.998 19.7154ZM53.158 20.1494C53.382 20.2334 53.452 20.2054 53.41 20.0934C53.326 20.1214 53.242 20.1354 53.158 20.1494ZM127.761 13.6254C128.013 14.2414 127.761 15.2494 127.229 15.6694C127.159 15.7254 127.103 15.7954 127.033 15.8654C126.921 15.9634 126.795 15.9494 126.683 15.8794C126.655 15.6274 127.089 15.6274 126.949 15.3194L126.613 15.3614C126.627 15.2494 126.627 15.1374 126.641 14.9554L126.207 15.5434C126.179 15.2634 126.319 15.1094 126.473 14.9694C126.809 14.6334 126.893 14.1154 126.655 13.6534C126.641 13.6114 126.599 13.5694 126.571 13.5274C126.543 13.4994 126.501 13.4854 126.459 13.4434C126.431 13.4714 126.403 13.5134 126.347 13.5834C125.745 13.3174 125.143 13.5834 124.527 13.6814C124.177 13.7374 123.841 13.9054 123.505 14.0454C122.861 14.3114 122.217 14.5914 121.587 14.8714L121.237 15.0534L121.027 16.2014C120.705 18.1054 120.383 20.0094 120.047 21.9134C119.753 23.5654 119.445 25.2034 119.123 26.8414C119.039 27.3034 118.899 27.7654 118.801 28.2274C118.745 28.4934 118.703 28.7734 118.675 29.0394C118.577 29.9214 118.381 30.7754 118.143 31.6294C118.129 31.7134 118.101 31.7834 118.101 31.8674C117.975 33.2254 117.597 34.5414 117.261 35.8714C117.219 36.0254 117.093 36.1794 117.205 36.3614C117.205 36.3754 117.163 36.4174 117.149 36.4454C117.093 36.5994 116.981 36.7674 117.009 36.9074C117.065 37.5234 116.827 38.0694 116.659 38.6294C116.603 38.8254 116.505 39.0074 116.351 39.1894C116.351 39.1194 116.337 39.0634 116.351 39.0074C116.449 38.6434 116.631 38.3074 116.603 37.9294L116.435 38.2514L116.029 39.0074C115.931 39.1614 115.777 39.2594 115.609 39.3434C115.315 39.4834 115.035 39.6514 114.713 39.8334V39.2034C114.909 39.0634 115.133 38.9654 115.259 38.7974C115.413 38.5874 115.525 38.3074 115.595 38.0554C115.889 36.8234 116.197 35.5914 116.449 34.3594C117.051 31.3214 117.653 28.2974 118.241 25.2594C118.577 23.4954 118.871 21.7314 119.207 19.9814C119.305 19.4494 119.473 18.9314 119.585 18.4134C119.697 17.8954 119.767 17.3914 119.851 16.8734L120.019 16.1314C120.061 15.9774 120.089 15.8094 120.131 15.5574L119.459 15.8934C116.687 17.3354 114.265 19.2114 112.207 21.5494C111.633 22.2214 111.115 22.9354 110.569 23.6354C110.485 23.7474 110.415 23.9154 110.401 24.0554C110.373 24.2934 110.205 24.4194 110.051 24.5594C109.897 24.6994 109.715 24.7554 109.505 24.6294C109.463 24.6154 109.379 24.6434 109.323 24.6574C109.197 24.4894 109.197 24.4894 109.225 24.2514L109.071 24.2934C109.057 24.2514 109.029 24.2094 109.043 24.1814C109.099 24.0274 109.113 23.9014 108.959 23.7894C108.931 23.7754 108.903 23.7614 108.903 23.7334C108.889 23.6354 108.861 23.5374 108.875 23.4394C108.931 23.1734 108.763 22.9214 108.931 22.6414C109.309 22.0254 109.631 21.3954 109.981 20.7794C109.995 20.7374 110.037 20.6674 110.065 20.6534C110.373 20.5554 110.373 20.2894 110.443 20.0374C110.485 19.8834 110.527 19.7154 110.611 19.5614C112.935 15.4594 115.399 11.4414 118.185 7.63342C118.521 7.18542 118.843 6.70942 119.291 6.34542C119.431 6.23342 119.557 6.12142 119.781 6.06542C119.977 6.02342 120.145 5.79942 120.313 5.64542C120.425 5.56142 120.537 5.46342 120.649 5.39342C120.845 5.25342 121.041 5.25342 121.237 5.39342C121.391 5.51942 121.559 5.64542 121.727 5.77142C122.105 6.05142 122.203 6.47142 122.203 6.91942C122.175 7.53542 122.133 8.15142 122.091 8.76742C121.979 10.2374 121.755 11.6934 121.489 13.1494C121.433 13.4294 121.405 13.7234 121.363 14.0594C121.727 13.9474 122.077 13.8634 122.399 13.7374C123.043 13.4714 123.701 13.2334 124.317 12.9114C124.877 12.6314 125.479 12.6174 126.067 12.5474C126.669 12.4774 127.537 13.0794 127.761 13.6254ZM121.237 7.24142C121.265 6.90542 121.251 6.56942 121.097 6.21942C120.803 6.45742 120.509 6.63942 120.285 6.87742C119.949 7.22742 119.655 7.60542 119.361 7.98342C118.353 9.28542 117.345 10.5874 116.351 11.8894C116.029 12.2954 115.735 12.7154 115.553 13.2334C115.133 14.3394 114.559 15.3754 113.929 16.3694C113.873 16.4394 113.803 16.4954 113.719 16.5934C113.551 16.2294 113.817 16.0194 113.901 15.7814C114.013 15.5014 114.209 15.2494 114.307 14.9694C114.391 14.7034 114.713 14.5634 114.657 14.2414C114.461 14.6754 113.985 14.8714 113.859 15.3894C113.747 15.8234 113.425 16.2014 113.215 16.6074C112.907 17.1674 112.529 17.6994 112.417 18.3434C112.459 18.3574 112.501 18.3574 112.557 18.3854C112.291 18.9454 112.011 19.5194 111.731 20.0794C111.647 20.2614 111.605 20.4294 111.661 20.6394L111.815 20.4854C112.165 20.0514 112.515 19.6314 112.865 19.2114C112.991 19.0714 113.131 18.9454 113.229 18.7914C113.621 18.2594 114.111 17.8534 114.713 17.5874C114.811 17.5454 114.923 17.4754 114.993 17.3914C115.161 17.1674 115.385 17.0274 115.595 16.8734C115.861 16.6914 116.099 16.4954 116.351 16.3134C116.519 16.2014 116.673 16.0894 116.855 16.0054C117.079 15.8794 117.303 15.7814 117.541 15.6694C117.667 15.6414 117.807 15.6554 117.919 15.5994C118.661 15.2634 119.389 14.9134 120.131 14.5634C120.243 14.5074 120.271 14.4094 120.201 14.2974C119.571 14.6194 118.955 14.9414 118.325 15.2494C118.073 15.3754 117.807 15.4734 117.541 15.5714C117.639 15.5014 117.737 15.4034 117.849 15.3334C118.101 15.1794 118.367 15.0394 118.647 14.8994L120.313 14.0454C120.355 13.8214 120.481 13.5834 120.439 13.3594C120.383 12.9814 120.467 12.6314 120.523 12.2674C120.691 11.0354 120.873 9.80342 121.055 8.55742L121.237 7.24142ZM119.557 6.49942C119.473 6.63942 119.417 6.73742 119.375 6.82142C119.403 6.84942 119.403 6.86342 119.417 6.87742C119.417 6.87742 119.431 6.87742 119.445 6.86342C119.515 6.77942 119.627 6.70942 119.557 6.49942ZM126.711 14.8434C126.865 14.7874 126.921 14.6754 126.893 14.5214C126.837 14.6334 126.767 14.7314 126.711 14.8434ZM118.115 30.4394C118.115 30.3414 118.157 30.2434 118.185 30.0894C118.115 30.0054 118.059 29.9214 117.975 29.7954L117.625 31.6434C117.737 31.4614 117.765 31.2234 117.891 31.1114C118.115 30.9154 118.101 30.6914 118.115 30.4394ZM116.617 37.9014C116.701 37.7754 116.799 37.6494 116.715 37.4394C116.659 37.5934 116.631 37.6914 116.603 37.8034C116.589 37.8454 116.603 37.8734 116.617 37.9014ZM124.253 13.7094C124.281 13.4294 124.281 13.4294 123.847 13.3034C124.001 13.1354 123.959 12.8554 124.281 12.7574C124.449 12.8694 124.659 12.9954 124.841 13.1494C124.897 13.2054 124.925 13.3314 124.897 13.4154C124.841 13.6254 124.743 13.8214 124.645 14.0594C124.393 13.8774 124.071 13.8774 123.917 13.5274C124.057 13.5974 124.155 13.6534 124.253 13.7094ZM124.183 15.4594C124.785 15.7114 125.051 16.1594 124.981 16.8174C124.939 17.0694 124.953 17.3214 124.869 17.5594C124.407 18.9174 124.099 20.3174 123.441 21.6054C122.629 23.2014 121.733 24.7274 120.683 26.1694C120.193 26.8414 119.661 27.4714 119.129 28.1014C118.933 28.3534 118.681 28.5494 118.443 28.7734L118.401 28.6754C118.191 28.9134 117.967 29.1374 117.743 29.3894C117.113 30.1034 116.469 30.7894 115.671 31.3494C115.321 31.6014 114.915 31.6854 114.537 31.8674C114.369 31.9514 114.173 32.0354 113.977 32.0774C113.767 32.1334 113.557 32.1894 113.347 32.1754C112.647 32.1194 111.905 31.7834 111.681 30.9994C111.653 30.8734 111.569 30.7614 111.513 30.6354C111.303 30.1314 111.345 29.5994 111.415 29.0814C111.513 28.4094 111.737 27.7514 112.017 27.1214C112.535 25.9034 113.095 24.7134 113.809 23.5794C114.005 23.2714 114.229 22.9774 114.439 22.6834C114.551 22.5294 114.691 22.3894 114.915 22.3474C115.083 22.4734 115.279 22.5994 115.461 22.7394C115.699 22.9354 115.783 23.2714 115.671 23.5654C115.587 23.7754 115.573 23.7894 115.293 23.7754C115.209 23.7614 115.139 23.9014 115.055 23.7754L114.971 23.7054C114.747 24.0274 114.523 24.3494 114.285 24.6574C114.173 24.8114 114.061 24.9654 113.949 25.1054C113.851 25.2314 113.767 25.3434 113.781 25.5254C113.781 25.6374 113.711 25.7634 113.669 25.8754C113.375 26.5194 113.067 27.1634 112.801 27.8214C112.549 28.4514 112.409 29.1094 112.339 29.7814C112.297 30.1314 112.311 30.4394 112.479 30.7334C112.549 30.8734 112.647 30.9434 112.801 30.9714C113.137 31.0414 113.459 30.9994 113.781 30.9154C114.467 30.7194 115.097 30.3554 115.671 29.9494C116.469 29.3754 117.239 28.7734 117.897 28.0454L117.939 28.0034C117.981 27.9614 118.023 27.9194 118.051 27.8634C118.051 27.8494 117.995 27.7934 117.967 27.7654C118.793 26.8974 119.521 25.9314 120.207 24.9654C120.557 24.4754 120.851 23.9574 121.243 23.4954C121.439 23.2574 121.635 23.0334 121.775 22.7534C121.929 22.4594 122.055 22.1514 122.195 21.8434C122.741 20.7094 123.287 19.5754 123.637 18.3574C123.763 17.9514 123.847 17.5454 123.931 17.1394C123.959 16.9854 123.931 16.8174 123.931 16.6494C123.777 16.6634 123.637 16.7754 123.581 16.5514C123.609 16.1174 123.791 15.7394 124.183 15.4594ZM119.857 26.6734C120.067 26.5334 120.193 26.3234 120.291 26.0854C120.109 26.2534 119.885 26.3934 119.857 26.6734C119.689 26.7014 119.689 26.8414 119.633 26.9394L119.703 26.9814C119.759 26.8834 119.801 26.7854 119.857 26.6734ZM118.415 28.6474L118.499 28.5634C118.485 28.5634 118.471 28.5494 118.471 28.5354C118.443 28.5774 118.443 28.6054 118.415 28.6474ZM114.257 31.4754C114.453 31.5034 114.537 31.4054 114.537 31.2094C114.509 31.2094 114.481 31.1814 114.467 31.1954C113.991 31.3214 113.515 31.4194 113.025 31.4054C112.955 31.4054 112.871 31.4474 112.801 31.4754C112.661 31.3074 112.451 31.3354 112.255 31.2934C112.507 31.6994 112.591 31.7414 113.011 31.6854C112.997 31.6434 112.997 31.6014 112.997 31.5734C113.305 31.6854 113.599 31.6714 113.907 31.5314C114.005 31.4894 114.117 31.4474 114.257 31.4754ZM127.95 17.4754C127.432 17.8394 127.082 18.3574 126.676 18.8334C126.564 18.9734 126.494 19.1554 126.354 19.3934C126.69 19.2114 126.956 19.0574 127.208 18.8614C128.118 18.1754 129.028 17.4894 129.952 16.8034L130.638 16.2574C130.722 16.2014 130.82 16.1734 130.918 16.1174L131.128 16.5934C131.31 16.5514 131.45 16.3554 131.66 16.4954C131.912 16.8454 131.786 17.1954 131.66 17.5454C131.576 17.7694 131.464 17.9794 131.352 18.1894L130.176 20.5554C130.134 20.6394 130.078 20.7234 130.022 20.8214C129.896 20.6674 129.994 20.5274 130.036 20.4014C130.106 20.2334 130.176 20.0654 130.26 19.8974C130.442 19.6454 130.596 19.3794 130.694 19.0854C130.498 19.3234 130.246 19.5474 130.26 19.8974C130.078 19.9814 130.022 20.1634 129.938 20.3314C129.84 20.5414 129.742 20.7514 129.616 21.0034L129.392 20.7514C129.35 20.7794 129.294 20.8074 129.21 20.8494C129.154 20.7934 129.098 20.7374 129.028 20.6814C129.098 20.4294 129.252 20.2194 129.182 19.9394C129.168 19.8694 129.238 19.7854 129.28 19.7014L129.938 18.4134C129.966 18.3434 129.994 18.2594 130.064 18.1054L128.86 18.9594C128.818 18.9594 128.776 18.9594 128.734 18.9734C128.594 18.9314 128.566 18.9454 128.454 19.1274C128.51 19.1134 128.594 19.0994 128.664 19.0994C128.776 19.1414 128.846 19.0854 128.902 19.0014C129.028 18.9454 129.154 18.9034 129.35 18.8334C128.734 19.3794 128.104 19.7854 127.474 20.1774C127.138 20.3874 126.788 20.5554 126.438 20.7374C126.004 20.9614 125.57 20.8914 125.15 20.7234C124.94 20.6394 124.856 20.4714 124.87 20.2334C124.884 19.7434 125.038 19.2954 125.29 18.9034C125.598 18.4554 125.906 18.0214 126.256 17.6154C126.998 16.7614 127.824 15.9914 128.762 15.3474C129.098 15.1234 129.476 14.9694 129.868 14.8714C130.036 14.8294 130.176 14.7174 130.344 14.6334C130.512 14.5494 130.68 14.4514 130.862 14.4094C131.156 14.3254 131.352 14.5214 131.534 14.7314C131.478 14.7174 131.422 14.6894 131.338 14.6614C131.324 14.7314 131.296 14.8014 131.282 14.8994C131.408 14.9134 131.534 14.9414 131.646 14.9554C131.926 15.2354 132.01 15.5434 131.842 15.9214C131.534 16.0614 131.506 16.0474 131.324 15.7814C131.268 15.8094 131.198 15.8374 131.128 15.8794C131.086 15.8374 131.03 15.8094 130.988 15.7674C130.96 15.7254 130.946 15.6834 130.904 15.5994C130.722 15.6834 130.54 15.7394 130.386 15.8374C129.854 16.1734 129.308 16.5234 128.79 16.8734C128.496 17.0554 128.23 17.2794 127.95 17.4754ZM128.412 19.1554L128.3 19.1974C128.314 19.2114 128.328 19.2254 128.328 19.2534L128.412 19.1554ZM126.746 19.7154L126.424 19.8694C126.508 19.8974 126.564 19.9254 126.62 19.9394C126.648 19.8834 126.676 19.8274 126.746 19.7154ZM125.906 20.1494C126.13 20.2334 126.2 20.2054 126.158 20.0934C126.074 20.1214 125.99 20.1354 125.906 20.1494ZM135.068 14.4654C134.928 14.5774 134.802 14.4794 134.676 14.2694C134.606 14.2694 134.536 14.3114 134.508 14.2834C134.452 14.2694 134.396 14.1854 134.41 14.1294C134.424 13.8634 134.494 13.5974 134.718 13.4154C134.928 13.4434 135.026 13.5694 135.082 13.7934C135.166 13.6394 135.264 13.5834 135.418 13.6534C135.446 13.7794 135.516 13.9054 135.46 14.0454C135.362 14.2274 135.208 14.3534 135.068 14.4654ZM133.752 20.7934C133.234 21.0874 132.674 20.9194 132.478 20.3594C132.324 19.9534 132.366 19.5334 132.394 19.1134C132.478 18.1474 132.898 17.2934 133.36 16.4534C133.458 16.2714 133.528 16.0894 133.626 15.9074C133.724 15.6974 133.864 15.4874 134.046 15.3194C134.102 15.3754 134.312 15.4314 134.382 15.4874C134.242 15.6134 134.102 15.7114 133.92 15.8654L134.074 15.9634C134.13 15.9074 134.186 15.8514 134.228 15.7954C134.284 15.7114 134.41 15.8234 134.438 15.7114C134.48 15.6274 134.55 15.5854 134.634 15.6274C134.718 15.8794 134.704 15.9494 134.536 16.1034C134.466 16.1734 134.41 16.2434 134.354 16.3414C134.256 16.4954 134.172 16.6774 134.06 16.8454L134.004 16.6914C133.808 17.0974 133.612 17.4474 133.458 17.8394C133.402 17.9654 133.43 18.1334 133.43 18.2874C133.43 18.3434 133.444 18.4134 133.43 18.4554C133.318 18.7074 133.318 18.9734 133.29 19.2394C133.248 19.5754 133.29 19.9114 133.388 20.2474C133.388 20.2894 133.416 20.3314 133.444 20.3734C133.64 20.3594 133.766 20.2894 133.85 20.1354C133.808 20.1074 133.766 20.1074 133.766 20.1074L134.186 19.7434C134.284 19.8414 134.06 19.8834 134.046 20.0234C134.2 20.0654 134.382 20.0654 134.578 20.0514C134.48 20.1634 134.424 20.2754 134.354 20.3454C134.186 20.4854 134.004 20.5974 133.85 20.7234C133.808 20.7514 133.78 20.7794 133.752 20.7934Z" fill="#14A4F5"/>
<path d="M67.1945 21.2274C66.6812 21.2274 66.2098 21.1668 65.7805 21.0454C65.3605 20.9241 64.9872 20.7561 64.6605 20.5414C64.3432 20.3268 64.0772 20.0888 63.8625 19.8274C63.6572 19.5568 63.5125 19.2768 63.4285 18.9874L65.0245 18.4974C65.1458 18.8428 65.3838 19.1461 65.7385 19.4074C66.0932 19.6688 66.5318 19.8041 67.0545 19.8134C67.6612 19.8134 68.1418 19.6874 68.4965 19.4354C68.8512 19.1834 69.0285 18.8521 69.0285 18.4414C69.0285 18.0681 68.8792 17.7648 68.5805 17.5314C68.2818 17.2888 67.8805 17.1021 67.3765 16.9714L66.1725 16.6634C65.7152 16.5421 65.2998 16.3648 64.9265 16.1314C64.5625 15.8981 64.2732 15.6041 64.0585 15.2494C63.8532 14.8948 63.7505 14.4748 63.7505 13.9894C63.7505 13.0748 64.0492 12.3654 64.6465 11.8614C65.2438 11.3481 66.0978 11.0914 67.2085 11.0914C67.8338 11.0914 68.3798 11.1894 68.8465 11.3854C69.3225 11.5721 69.7145 11.8334 70.0225 12.1694C70.3305 12.4961 70.5592 12.8694 70.7085 13.2894L69.1405 13.7934C69.0005 13.4201 68.7578 13.1121 68.4125 12.8694C68.0672 12.6268 67.6378 12.5054 67.1245 12.5054C66.5925 12.5054 66.1725 12.6314 65.8645 12.8834C65.5658 13.1354 65.4165 13.4854 65.4165 13.9334C65.4165 14.2974 65.5332 14.5821 65.7665 14.7874C66.0092 14.9834 66.3358 15.1328 66.7465 15.2354L67.9505 15.5294C68.8278 15.7441 69.5092 16.1128 69.9945 16.6354C70.4798 17.1581 70.7225 17.7368 70.7225 18.3714C70.7225 18.9314 70.5872 19.4261 70.3165 19.8554C70.0458 20.2848 69.6445 20.6208 69.1125 20.8634C68.5898 21.1061 67.9505 21.2274 67.1945 21.2274ZM72.3234 21.0594L72.3374 14.0594H73.8914L73.8774 21.0594H72.3234ZM73.1074 12.7294C72.8554 12.7294 72.6361 12.6408 72.4494 12.4634C72.2721 12.2768 72.1834 12.0574 72.1834 11.8054C72.1834 11.5534 72.2721 11.3388 72.4494 11.1614C72.6361 10.9841 72.8554 10.8954 73.1074 10.8954C73.3594 10.8954 73.5741 10.9841 73.7514 11.1614C73.9381 11.3388 74.0314 11.5534 74.0314 11.8054C74.0314 12.0574 73.9381 12.2768 73.7514 12.4634C73.5741 12.6408 73.3594 12.7294 73.1074 12.7294ZM75.7254 21.0594V14.0594H77.1954L77.2934 15.3474V21.0594H75.7254ZM80.4714 21.0594V17.4754L82.0394 17.0554V21.0594H80.4714ZM80.4714 17.4754C80.4714 16.9154 80.4061 16.4861 80.2754 16.1874C80.1541 15.8794 79.9768 15.6648 79.7434 15.5434C79.5194 15.4221 79.2534 15.3614 78.9454 15.3614C78.4228 15.3521 78.0168 15.5248 77.7274 15.8794C77.4381 16.2341 77.2934 16.7428 77.2934 17.4054H76.7054C76.7054 16.6681 76.8128 16.0381 77.0274 15.5154C77.2421 14.9834 77.5501 14.5821 77.9514 14.3114C78.3528 14.0314 78.8288 13.8914 79.3794 13.8914C80.2288 13.8914 80.8821 14.1528 81.3394 14.6754C81.8061 15.1888 82.0394 15.9821 82.0394 17.0554L80.4714 17.4754ZM86.6378 24.0414C86.1431 24.0414 85.6951 23.9994 85.2938 23.9154C84.9018 23.8314 84.5704 23.7334 84.2998 23.6214C84.0291 23.5094 83.8191 23.4021 83.6698 23.2994L84.2718 22.0394C84.4024 22.1048 84.5751 22.1841 84.7898 22.2774C85.0138 22.3801 85.2751 22.4688 85.5738 22.5434C85.8724 22.6181 86.2084 22.6554 86.5818 22.6554C86.9831 22.6554 87.3424 22.5714 87.6598 22.4034C87.9771 22.2448 88.2244 21.9974 88.4018 21.6614C88.5791 21.3254 88.6678 20.8961 88.6678 20.3734V14.0594H90.2358V20.3314C90.2358 21.1248 90.0864 21.7968 89.7878 22.3474C89.4891 22.9074 89.0691 23.3274 88.5278 23.6074C87.9864 23.8968 87.3564 24.0414 86.6378 24.0414ZM86.3998 20.9194C85.7651 20.9194 85.2098 20.7748 84.7338 20.4854C84.2671 20.1961 83.8984 19.7948 83.6278 19.2814C83.3664 18.7588 83.2358 18.1568 83.2358 17.4754C83.2358 16.7474 83.3664 16.1174 83.6278 15.5854C83.8984 15.0534 84.2671 14.6381 84.7338 14.3394C85.2098 14.0408 85.7651 13.8914 86.3998 13.8914C86.9691 13.8914 87.4638 14.0408 87.8838 14.3394C88.3131 14.6381 88.6444 15.0581 88.8778 15.5994C89.1111 16.1314 89.2278 16.7614 89.2278 17.4894C89.2278 18.1801 89.1111 18.7821 88.8778 19.2954C88.6444 19.8088 88.3131 20.2101 87.8838 20.4994C87.4638 20.7794 86.9691 20.9194 86.3998 20.9194ZM86.8338 19.5894C87.1884 19.5894 87.4964 19.4961 87.7578 19.3094C88.0284 19.1228 88.2384 18.8708 88.3878 18.5534C88.5371 18.2268 88.6118 17.8534 88.6118 17.4334C88.6118 17.0041 88.5371 16.6308 88.3878 16.3134C88.2384 15.9868 88.0284 15.7348 87.7578 15.5574C87.4871 15.3708 87.1744 15.2774 86.8198 15.2774C86.4464 15.2774 86.1151 15.3708 85.8258 15.5574C85.5458 15.7348 85.3218 15.9868 85.1538 16.3134C84.9951 16.6308 84.9158 17.0041 84.9158 17.4334C84.9158 17.8534 84.9951 18.2268 85.1538 18.5534C85.3218 18.8708 85.5504 19.1228 85.8398 19.3094C86.1291 19.4961 86.4604 19.5894 86.8338 19.5894ZM91.9816 21.0594L91.9676 11.1334H93.5356L93.5496 21.0594H91.9816ZM96.7276 21.0594V17.4754L98.2956 17.0554V21.0594H96.7276ZM96.7276 17.4754C96.7276 16.9154 96.6623 16.4861 96.5316 16.1874C96.4009 15.8794 96.2189 15.6648 95.9856 15.5434C95.7616 15.4221 95.5003 15.3614 95.2016 15.3614C94.6696 15.3521 94.2589 15.5248 93.9696 15.8794C93.6896 16.2341 93.5496 16.7428 93.5496 17.4054H92.9476C92.9476 16.6681 93.0549 16.0381 93.2696 15.5154C93.4936 14.9834 93.8063 14.5821 94.2076 14.3114C94.6089 14.0314 95.0849 13.8914 95.6356 13.8914C96.4756 13.8914 97.1289 14.1528 97.5956 14.6754C98.0623 15.1888 98.2956 15.9821 98.2956 17.0554L96.7276 17.4754ZM143.784 21.2274C143.271 21.2274 142.8 21.1668 142.37 21.0454C141.95 20.9241 141.577 20.7561 141.25 20.5414C140.933 20.3268 140.667 20.0888 140.452 19.8274C140.247 19.5568 140.102 19.2768 140.018 18.9874L141.614 18.4974C141.736 18.8428 141.974 19.1461 142.328 19.4074C142.683 19.6688 143.122 19.8041 143.644 19.8134C144.251 19.8134 144.732 19.6874 145.086 19.4354C145.441 19.1834 145.618 18.8521 145.618 18.4414C145.618 18.0681 145.469 17.7648 145.17 17.5314C144.872 17.2888 144.47 17.1021 143.966 16.9714L142.762 16.6634C142.305 16.5421 141.89 16.3648 141.516 16.1314C141.152 15.8981 140.863 15.6041 140.648 15.2494C140.443 14.8948 140.34 14.4748 140.34 13.9894C140.34 13.0748 140.639 12.3654 141.236 11.8614C141.834 11.3481 142.688 11.0914 143.798 11.0914C144.424 11.0914 144.97 11.1894 145.436 11.3854C145.912 11.5721 146.304 11.8334 146.612 12.1694C146.92 12.4961 147.149 12.8694 147.298 13.2894L145.73 13.7934C145.59 13.4201 145.348 13.1121 145.002 12.8694C144.657 12.6268 144.228 12.5054 143.714 12.5054C143.182 12.5054 142.762 12.6314 142.454 12.8834C142.156 13.1354 142.006 13.4854 142.006 13.9334C142.006 14.2974 142.123 14.5821 142.356 14.7874C142.599 14.9834 142.926 15.1328 143.336 15.2354L144.54 15.5294C145.418 15.7441 146.099 16.1128 146.584 16.6354C147.07 17.1581 147.312 17.7368 147.312 18.3714C147.312 18.9314 147.177 19.4261 146.906 19.8554C146.636 20.2848 146.234 20.6208 145.702 20.8634C145.18 21.1061 144.54 21.2274 143.784 21.2274ZM148.913 21.0594L148.927 14.0594H150.481L150.467 21.0594H148.913ZM149.697 12.7294C149.445 12.7294 149.226 12.6408 149.039 12.4634C148.862 12.2768 148.773 12.0574 148.773 11.8054C148.773 11.5534 148.862 11.3388 149.039 11.1614C149.226 10.9841 149.445 10.8954 149.697 10.8954C149.949 10.8954 150.164 10.9841 150.341 11.1614C150.528 11.3388 150.621 11.5534 150.621 11.8054C150.621 12.0574 150.528 12.2768 150.341 12.4634C150.164 12.6408 149.949 12.7294 149.697 12.7294ZM152.315 21.0594V14.0594H153.785L153.883 15.3474V21.0594H152.315ZM157.061 21.0594V17.4754L158.629 17.0554V21.0594H157.061ZM157.061 17.4754C157.061 16.9154 156.996 16.4861 156.865 16.1874C156.744 15.8794 156.567 15.6648 156.333 15.5434C156.109 15.4221 155.843 15.3614 155.535 15.3614C155.013 15.3521 154.607 15.5248 154.317 15.8794C154.028 16.2341 153.883 16.7428 153.883 17.4054H153.295C153.295 16.6681 153.403 16.0381 153.617 15.5154C153.832 14.9834 154.14 14.5821 154.541 14.3114C154.943 14.0314 155.419 13.8914 155.969 13.8914C156.819 13.8914 157.472 14.1528 157.929 14.6754C158.396 15.1888 158.629 15.9821 158.629 17.0554L157.061 17.4754ZM163.228 24.0414C162.733 24.0414 162.285 23.9994 161.884 23.9154C161.492 23.8314 161.16 23.7334 160.89 23.6214C160.619 23.5094 160.409 23.4021 160.26 23.2994L160.862 22.0394C160.992 22.1048 161.165 22.1841 161.38 22.2774C161.604 22.3801 161.865 22.4688 162.164 22.5434C162.462 22.6181 162.798 22.6554 163.172 22.6554C163.573 22.6554 163.932 22.5714 164.25 22.4034C164.567 22.2448 164.814 21.9974 164.992 21.6614C165.169 21.3254 165.258 20.8961 165.258 20.3734V14.0594H166.826V20.3314C166.826 21.1248 166.676 21.7968 166.378 22.3474C166.079 22.9074 165.659 23.3274 165.118 23.6074C164.576 23.8968 163.946 24.0414 163.228 24.0414ZM162.99 20.9194C162.355 20.9194 161.8 20.7748 161.324 20.4854C160.857 20.1961 160.488 19.7948 160.218 19.2814C159.956 18.7588 159.826 18.1568 159.826 17.4754C159.826 16.7474 159.956 16.1174 160.218 15.5854C160.488 15.0534 160.857 14.6381 161.324 14.3394C161.8 14.0408 162.355 13.8914 162.99 13.8914C163.559 13.8914 164.054 14.0408 164.474 14.3394C164.903 14.6381 165.234 15.0581 165.468 15.5994C165.701 16.1314 165.818 16.7614 165.818 17.4894C165.818 18.1801 165.701 18.7821 165.468 19.2954C165.234 19.8088 164.903 20.2101 164.474 20.4994C164.054 20.7794 163.559 20.9194 162.99 20.9194ZM163.424 19.5894C163.778 19.5894 164.086 19.4961 164.348 19.3094C164.618 19.1228 164.828 18.8708 164.978 18.5534C165.127 18.2268 165.202 17.8534 165.202 17.4334C165.202 17.0041 165.127 16.6308 164.978 16.3134C164.828 15.9868 164.618 15.7348 164.348 15.5574C164.077 15.3708 163.764 15.2774 163.41 15.2774C163.036 15.2774 162.705 15.3708 162.416 15.5574C162.136 15.7348 161.912 15.9868 161.744 16.3134C161.585 16.6308 161.506 17.0041 161.506 17.4334C161.506 17.8534 161.585 18.2268 161.744 18.5534C161.912 18.8708 162.14 19.1228 162.43 19.3094C162.719 19.4961 163.05 19.5894 163.424 19.5894ZM168.571 21.0594L168.557 11.1334H170.125L170.139 21.0594H168.571ZM173.317 21.0594V17.4754L174.885 17.0554V21.0594H173.317ZM173.317 17.4754C173.317 16.9154 173.252 16.4861 173.121 16.1874C172.991 15.8794 172.809 15.6648 172.575 15.5434C172.351 15.4221 172.09 15.3614 171.791 15.3614C171.259 15.3521 170.849 15.5248 170.559 15.8794C170.279 16.2341 170.139 16.7428 170.139 17.4054H169.537C169.537 16.6681 169.645 16.0381 169.859 15.5154C170.083 14.9834 170.396 14.5821 170.797 14.3114C171.199 14.0314 171.675 13.8914 172.225 13.8914C173.065 13.8914 173.719 14.1528 174.185 14.6754C174.652 15.1888 174.885 15.9821 174.885 17.0554L173.317 17.4754Z" fill="#262626"/>
<path d="M103.555 24.1394V9.99942H104.829V24.1394H103.555Z" fill="#C6C6C6"/>
</svg>
