<svg width="25" height="29" viewBox="0 0 25 29" fill="none" xmlns="http://www.w3.org/2000/svg">
<path fill-rule="evenodd" clip-rule="evenodd" d="M0.848213 5.14535C1.06649 5.34356 1.18692 5.35861 1.54193 5.50664L3.6645 6.41613C4.12238 6.61308 4.58653 6.80376 5.07452 7.01451C6.89099 7.80232 6.55228 7.07097 6.52092 10.3502C7.41536 10.2297 9.1528 9.19604 12.501 9.2136H12.57C13.9047 9.22113 15.8253 9.51217 17.0509 9.90732C17.4373 10.0328 18.0884 10.3025 18.4773 10.3489L18.4723 7.78476C17.2742 7.1362 16.302 6.94426 14.8807 6.53531C18.0846 6.32455 18.6943 7.30555 19.1346 7.30681C19.5812 7.30931 21.621 6.12886 21.9948 6.18154V8.86737C21.8681 8.88618 21.7552 8.86988 21.6887 8.87991C21.4203 8.92131 21.3676 8.74945 21.3676 9.33278L21.4968 9.3955C21.5168 9.40177 21.5394 9.41181 21.5645 9.41808L21.9183 9.47202C22.0989 9.56862 22.0161 11.0853 21.9321 11.2985C21.7439 11.7777 21.2396 12.9569 21.2095 13.3207L23.2242 13.3182C23.2279 12.9105 22.7224 11.838 22.5543 11.3763C22.4 10.9536 22.4552 10.6349 22.4489 10.1607C22.4364 9.26754 22.3498 9.53977 23.1063 9.44192V8.89622L22.4452 8.87239L22.459 5.94445C22.9306 5.64338 23.7736 5.47904 24.1525 5.18424C23.9631 5.00736 19.0719 2.87727 18.4145 2.59125L12.5549 0.000765723C12.2852 -0.033105 9.99455 1.06707 9.59688 1.24144C8.56571 1.69556 7.65622 2.09071 6.67397 2.53981L0.845703 5.1441L0.848213 5.14535Z" fill="#14A4F5"/>
<path fill-rule="evenodd" clip-rule="evenodd" d="M12.7605 27.9516C13.3263 25.6697 16.4248 20.9566 18.4897 19.4952C17.6956 16.9361 17.0571 14.8687 18.0331 12.1641C18.1296 11.8956 18.3253 11.5418 18.3868 11.2558C18.0393 11.1705 17.5388 10.941 17.1148 10.7942C13.7214 9.62878 9.80122 9.75422 6.5948 11.3022C8.61449 14.3117 7.16307 18.1291 6.51953 19.5918C8.58188 20.4185 11.836 25.5944 12.1985 28.0344L12.265 25.2369L12.255 22.0518C12.255 21.2239 12.3817 18.3122 12.206 17.7841C11.9301 17.4956 11.5261 17.4253 11.5663 16.8081C11.6365 15.7355 13.2385 15.6176 13.4053 16.6638C13.5132 17.3438 13.1569 17.5257 12.7894 17.7665L12.7605 27.9516Z" fill="#14A4F5"/>
</svg>
