<svg width="721" height="303" viewBox="0 0 721 303" fill="none" xmlns="http://www.w3.org/2000/svg">
<path fill-rule="evenodd" clip-rule="evenodd" d="M0.0267677 57.8837C2.35506 59.9979 3.63964 60.1584 7.42646 61.7374L30.0671 71.4386C34.9512 73.5394 39.9022 75.5734 45.1074 77.8214C64.4831 86.2246 60.8702 78.4235 60.5357 113.401C70.0763 112.117 88.609 101.091 124.323 101.278H125.059C139.296 101.359 159.783 104.463 172.856 108.678C176.977 110.016 183.922 112.893 188.07 113.388L188.017 86.0373C175.238 79.1193 164.867 77.072 149.707 72.7098C183.882 70.4618 190.385 80.9257 195.082 80.9391C199.845 80.9659 221.603 68.3744 225.59 68.9364V97.5851C224.239 97.7858 223.035 97.6119 222.325 97.7189C219.462 98.1605 218.9 96.3273 218.9 102.549L220.278 103.218C220.492 103.285 220.733 103.392 221.001 103.459L224.774 104.035C226.701 105.065 225.818 121.243 224.921 123.517C222.914 128.629 217.535 141.207 217.214 145.088L238.704 145.061C238.744 140.712 233.351 129.271 231.558 124.347C229.912 119.838 230.501 116.439 230.434 111.381C230.3 101.854 229.377 104.757 237.446 103.714V97.8929L230.394 97.6386L230.541 66.4074C235.573 63.1959 244.565 61.443 248.606 58.2985C246.585 56.4118 194.413 33.6908 187.401 30.6399L124.898 3.00817C122.021 2.64688 97.5877 14.382 93.3459 16.242C82.3467 21.0859 72.6455 25.3009 62.1682 30.0913L0 57.8703L0.0267677 57.8837Z" fill="white"/>
<path fill-rule="evenodd" clip-rule="evenodd" d="M127.078 301.15C133.113 276.81 166.164 226.537 188.189 210.949C179.719 183.651 172.908 161.599 183.319 132.75C184.349 129.886 186.436 126.113 187.092 123.062C183.386 122.152 178.047 119.703 173.524 118.138C137.328 105.707 95.5125 107.045 61.3107 123.557C82.8541 155.658 67.3723 196.377 60.5078 211.979C82.5062 220.797 117.216 276.007 121.084 302.033L121.793 272.193L121.686 238.219C121.686 229.388 123.037 198.33 121.164 192.697C118.22 189.619 113.911 188.87 114.34 182.286C115.089 170.846 132.176 169.588 133.956 180.748C135.107 188 131.307 189.94 127.386 192.51L127.078 301.15Z" fill="white"/>
<path d="M311.529 257H287.712V225.721H311.305V231.843H294.549V238.188H309.294V244.31H294.549V250.878H311.529V257ZM359.874 241.36C359.874 243.565 359.471 245.62 358.667 247.527C357.863 249.433 356.716 251.087 355.226 252.487C353.767 253.887 352.009 254.989 349.954 255.794C347.928 256.598 345.694 257 343.251 257H331.052V225.721H343.251C345.694 225.721 347.928 226.123 349.954 226.927C352.009 227.702 353.767 228.789 355.226 230.189C356.716 231.59 357.863 233.243 358.667 235.149C359.471 237.026 359.874 239.067 359.874 241.271V241.36ZM352.679 241.45V241.36C352.679 239.99 352.441 238.724 351.964 237.562C351.518 236.401 350.877 235.403 350.043 234.568C349.239 233.734 348.256 233.094 347.094 232.647C345.932 232.17 344.651 231.932 343.251 231.932H337.934V250.789H343.251C344.651 250.789 345.932 250.565 347.094 250.119C348.256 249.672 349.239 249.031 350.043 248.197C350.877 247.363 351.518 246.38 351.964 245.248C352.441 244.116 352.679 242.85 352.679 241.45ZM406.177 243.371C406.177 245.754 405.849 247.825 405.194 249.582C404.568 251.34 403.659 252.815 402.468 254.006C401.276 255.168 399.832 256.047 398.133 256.643C396.435 257.209 394.544 257.492 392.459 257.492C388.258 257.492 384.952 256.33 382.539 254.006C380.126 251.683 378.919 248.212 378.919 243.595V225.721H385.801V243.416C385.801 245.978 386.396 247.914 387.588 249.225C388.78 250.506 390.433 251.146 392.548 251.146C394.663 251.146 396.316 250.521 397.508 249.27C398.699 248.018 399.295 246.142 399.295 243.639V225.721H406.177V243.371ZM454.072 251.951C453.268 252.815 452.434 253.589 451.57 254.274C450.706 254.959 449.752 255.555 448.71 256.062C447.697 256.538 446.58 256.896 445.359 257.134C444.137 257.402 442.767 257.536 441.248 257.536C438.954 257.536 436.824 257.119 434.858 256.285C432.892 255.451 431.194 254.319 429.764 252.889C428.334 251.429 427.217 249.716 426.412 247.75C425.608 245.784 425.206 243.684 425.206 241.45V241.36C425.206 239.126 425.608 237.041 426.412 235.105C427.217 233.139 428.334 231.426 429.764 229.966C431.194 228.477 432.906 227.315 434.902 226.481C436.898 225.617 439.103 225.185 441.516 225.185C442.975 225.185 444.301 225.304 445.493 225.542C446.714 225.781 447.816 226.108 448.799 226.525C449.782 226.942 450.691 227.449 451.525 228.045C452.359 228.64 453.134 229.296 453.849 230.011L449.469 235.06C448.248 233.958 446.997 233.094 445.716 232.468C444.465 231.843 443.05 231.53 441.471 231.53C440.16 231.53 438.939 231.783 437.807 232.29C436.705 232.796 435.751 233.496 434.947 234.39C434.143 235.283 433.517 236.326 433.07 237.518C432.623 238.679 432.4 239.931 432.4 241.271V241.36C432.4 242.701 432.623 243.967 433.07 245.159C433.517 246.35 434.128 247.393 434.902 248.287C435.707 249.18 436.66 249.895 437.762 250.431C438.894 250.938 440.13 251.191 441.471 251.191C443.258 251.191 444.763 250.863 445.984 250.208C447.235 249.553 448.472 248.659 449.693 247.527L454.072 251.951ZM503.461 257H496.267L493.407 249.985H480.18L477.32 257H470.305L483.71 225.498H490.055L503.461 257ZM490.949 243.907L486.793 233.764L482.638 243.907H490.949ZM545.376 232.066H535.859V257H528.977V232.066H519.459V225.721H545.376V232.066ZM571.268 257H564.387V225.721H571.268V257ZM624.35 241.36C624.35 243.595 623.933 245.695 623.099 247.661C622.265 249.597 621.103 251.31 619.614 252.8C618.154 254.259 616.396 255.421 614.341 256.285C612.315 257.119 610.096 257.536 607.683 257.536C605.27 257.536 603.051 257.119 601.025 256.285C598.999 255.421 597.242 254.274 595.752 252.844C594.293 251.385 593.146 249.687 592.312 247.75C591.507 245.784 591.105 243.684 591.105 241.45V241.36C591.105 239.126 591.522 237.041 592.356 235.105C593.19 233.139 594.337 231.426 595.797 229.966C597.286 228.477 599.044 227.315 601.07 226.481C603.125 225.617 605.359 225.185 607.772 225.185C610.185 225.185 612.405 225.617 614.43 226.481C616.456 227.315 618.199 228.462 619.658 229.921C621.148 231.351 622.295 233.049 623.099 235.015C623.933 236.952 624.35 239.037 624.35 241.271V241.36ZM617.156 241.45V241.36C617.156 240.02 616.918 238.754 616.441 237.562C615.994 236.371 615.339 235.328 614.475 234.434C613.641 233.541 612.643 232.841 611.481 232.334C610.319 231.798 609.053 231.53 607.683 231.53C606.283 231.53 605.002 231.783 603.84 232.29C602.708 232.796 601.725 233.496 600.891 234.39C600.087 235.283 599.446 236.326 598.97 237.518C598.523 238.679 598.299 239.931 598.299 241.271V241.36C598.299 242.701 598.523 243.967 598.97 245.159C599.446 246.35 600.102 247.393 600.936 248.287C601.8 249.18 602.798 249.895 603.93 250.431C605.091 250.938 606.372 251.191 607.772 251.191C609.143 251.191 610.409 250.938 611.571 250.431C612.732 249.925 613.715 249.225 614.52 248.331C615.354 247.438 615.994 246.41 616.441 245.248C616.918 244.056 617.156 242.79 617.156 241.45ZM671.654 257H665.8L650.652 237.115V257H643.86V225.721H650.205L664.861 244.98V225.721H671.654V257Z" fill="white"/>
<path d="M371.592 91.8279H334.53V188.92H307.734V91.8279H270.672V67.1199H371.592V91.8279ZM509.65 169.258C506.518 172.622 503.27 175.638 499.906 178.306C496.542 180.974 492.83 183.294 488.77 185.266C484.826 187.122 480.476 188.514 475.72 189.442C470.964 190.486 465.628 191.008 459.712 191.008C450.78 191.008 442.486 189.384 434.83 186.136C427.174 182.888 420.562 178.48 414.994 172.912C409.426 167.228 405.076 160.558 401.944 152.902C398.812 145.246 397.246 137.068 397.246 128.368V128.02C397.246 119.32 398.812 111.2 401.944 103.66C405.076 96.0039 409.426 89.3339 414.994 83.6499C420.562 77.8499 427.232 73.3259 435.004 70.0779C442.776 66.7139 451.36 65.0319 460.756 65.0319C466.44 65.0319 471.602 65.4959 476.242 66.4239C480.998 67.3519 485.29 68.6279 489.118 70.2519C492.946 71.8759 496.484 73.8479 499.732 76.1679C502.98 78.4879 505.996 81.0399 508.78 83.8239L491.728 103.486C486.972 99.1939 482.1 95.8299 477.112 93.3939C472.24 90.9579 466.73 89.7399 460.582 89.7399C455.478 89.7399 450.722 90.7259 446.314 92.6979C442.022 94.6699 438.31 97.3959 435.178 100.876C432.046 104.356 429.61 108.416 427.87 113.056C426.13 117.58 425.26 122.452 425.26 127.672V128.02C425.26 133.24 426.13 138.17 427.87 142.81C429.61 147.45 431.988 151.51 435.004 154.99C438.136 158.47 441.848 161.254 446.14 163.342C450.548 165.314 455.362 166.3 460.582 166.3C467.542 166.3 473.4 165.024 478.156 162.472C483.028 159.92 487.842 156.44 492.598 152.032L509.65 169.258ZM663.341 188.92H636.719V109.402L602.441 161.428H601.745L567.815 109.924V188.92H541.541V67.1199H570.425L602.441 118.624L634.457 67.1199H663.341V188.92Z" fill="white"/>
<path d="M720.5 27.9639C720.5 43.1069 707.542 55.4277 691.5 55.4277C675.458 55.4277 662.5 43.1069 662.5 27.9639C662.5 12.8208 675.458 0.5 691.5 0.5C707.542 0.5 720.5 12.8208 720.5 27.9639Z" stroke="white"/>
<mask id="path-6-outside-1_2907_773" maskUnits="userSpaceOnUse" x="672.428" y="19.9746" width="35" height="18" fill="black">
<rect fill="white" x="672.428" y="19.9746" width="35" height="18"/>
<path d="M674.377 23.0527V20.9746H686.76V23.0527H681.768V36.9746H679.362V23.0527H674.377ZM689.496 20.9746H692.426L697.52 33.4121H697.707L702.801 20.9746H705.731V36.9746H703.434V25.3965H703.285L698.567 36.9512H696.66L691.942 25.3887H691.793V36.9746H689.496V20.9746Z"/>
</mask>
<path d="M674.377 23.0527V20.9746H686.76V23.0527H681.768V36.9746H679.362V23.0527H674.377ZM689.496 20.9746H692.426L697.52 33.4121H697.707L702.801 20.9746H705.731V36.9746H703.434V25.3965H703.285L698.567 36.9512H696.66L691.942 25.3887H691.793V36.9746H689.496V20.9746Z" fill="white"/>
<path d="M674.377 23.0527H673.377V24.0527H674.377V23.0527ZM674.377 20.9746V19.9746H673.377V20.9746H674.377ZM686.76 20.9746H687.76V19.9746H686.76V20.9746ZM686.76 23.0527V24.0527H687.76V23.0527H686.76ZM681.768 23.0527V22.0527H680.768V23.0527H681.768ZM681.768 36.9746V37.9746H682.768V36.9746H681.768ZM679.362 36.9746H678.362V37.9746H679.362V36.9746ZM679.362 23.0527H680.362V22.0527H679.362V23.0527ZM675.377 23.0527V20.9746H673.377V23.0527H675.377ZM674.377 21.9746H686.76V19.9746H674.377V21.9746ZM685.76 20.9746V23.0527H687.76V20.9746H685.76ZM686.76 22.0527H681.768V24.0527H686.76V22.0527ZM680.768 23.0527V36.9746H682.768V23.0527H680.768ZM681.768 35.9746H679.362V37.9746H681.768V35.9746ZM680.362 36.9746V23.0527H678.362V36.9746H680.362ZM679.362 22.0527H674.377V24.0527H679.362V22.0527ZM689.496 20.9746V19.9746H688.496V20.9746H689.496ZM692.426 20.9746L693.351 20.5956L693.097 19.9746H692.426V20.9746ZM697.52 33.4121L696.594 33.7911L696.849 34.4121H697.52V33.4121ZM697.707 33.4121V34.4121H698.378L698.633 33.7911L697.707 33.4121ZM702.801 20.9746V19.9746H702.13L701.876 20.5956L702.801 20.9746ZM705.731 20.9746H706.731V19.9746H705.731V20.9746ZM705.731 36.9746V37.9746H706.731V36.9746H705.731ZM703.434 36.9746H702.434V37.9746H703.434V36.9746ZM703.434 25.3965H704.434V24.3965H703.434V25.3965ZM703.285 25.3965V24.3965H702.614L702.36 25.0184L703.285 25.3965ZM698.567 36.9512V37.9512H699.238L699.492 37.3292L698.567 36.9512ZM696.66 36.9512L695.735 37.329L695.988 37.9512H696.66V36.9512ZM691.942 25.3887L692.868 25.0108L692.614 24.3887H691.942V25.3887ZM691.793 25.3887V24.3887H690.793V25.3887H691.793ZM691.793 36.9746V37.9746H692.793V36.9746H691.793ZM689.496 36.9746H688.496V37.9746H689.496V36.9746ZM689.496 21.9746H692.426V19.9746H689.496V21.9746ZM691.501 21.3536L696.594 33.7911L698.445 33.0331L693.351 20.5956L691.501 21.3536ZM697.52 34.4121H697.707V32.4121H697.52V34.4121ZM698.633 33.7911L703.726 21.3536L701.876 20.5956L696.782 33.0331L698.633 33.7911ZM702.801 21.9746H705.731V19.9746H702.801V21.9746ZM704.731 20.9746V36.9746H706.731V20.9746H704.731ZM705.731 35.9746H703.434V37.9746H705.731V35.9746ZM704.434 36.9746V25.3965H702.434V36.9746H704.434ZM703.434 24.3965H703.285V26.3965H703.434V24.3965ZM702.36 25.0184L697.641 36.5731L699.492 37.3292L704.211 25.7746L702.36 25.0184ZM698.567 35.9512H696.66V37.9512H698.567V35.9512ZM697.586 36.5733L692.868 25.0108L691.016 25.7665L695.735 37.329L697.586 36.5733ZM691.942 24.3887H691.793V26.3887H691.942V24.3887ZM690.793 25.3887V36.9746H692.793V25.3887H690.793ZM691.793 35.9746H689.496V37.9746H691.793V35.9746ZM690.496 36.9746V20.9746H688.496V36.9746H690.496Z" fill="white" mask="url(#path-6-outside-1_2907_773)"/>
</svg>
