<svg width="671" height="300" viewBox="0 0 671 300" fill="none" xmlns="http://www.w3.org/2000/svg">
<path fill-rule="evenodd" clip-rule="evenodd" d="M0.0267677 54.8837C2.35506 56.9979 3.63964 57.1584 7.42646 58.7374L30.0671 68.4386C34.9512 70.5394 39.9022 72.5734 45.1074 74.8214C64.4831 83.2246 60.8702 75.4235 60.5357 110.401C70.0763 109.117 88.609 98.0909 124.323 98.2783H125.059C139.296 98.3586 159.783 101.463 172.856 105.678C176.977 107.016 183.922 109.893 188.07 110.388L188.017 83.0373C175.238 76.1193 164.867 74.072 149.707 69.7098C183.882 67.4618 190.385 77.9258 195.082 77.9391C199.845 77.9659 221.603 65.3744 225.59 65.9364V94.5851C224.239 94.7858 223.035 94.6119 222.325 94.7189C219.462 95.1605 218.9 93.3273 218.9 99.5494L220.278 100.218C220.492 100.285 220.733 100.392 221.001 100.459L224.774 101.035C226.701 102.065 225.818 118.243 224.921 120.518C222.914 125.629 217.535 138.207 217.214 142.088L238.704 142.061C238.744 137.712 233.351 126.271 231.558 121.347C229.912 116.838 230.501 113.439 230.434 108.381C230.3 98.8536 229.377 101.757 237.446 100.714V94.8929L230.394 94.6386L230.541 63.4074C235.573 60.1959 244.565 58.443 248.606 55.2985C246.585 53.4118 194.413 30.6908 187.401 27.6399L124.898 0.0081677C122.021 -0.353119 97.5877 11.382 93.3459 13.242C82.3467 18.0859 72.6455 22.3009 62.1682 27.0913L0 54.8703L0.0267677 54.8837Z" fill="#14A4F5"/>
<path fill-rule="evenodd" clip-rule="evenodd" d="M127.079 298.15C133.114 273.81 166.165 223.538 188.19 207.949C179.72 180.652 172.909 158.6 183.319 129.75C184.35 126.887 186.437 123.113 187.093 120.063C183.386 119.153 178.047 116.704 173.524 115.138C137.329 102.707 95.513 104.046 61.3111 120.558C82.8546 152.659 67.3728 193.377 60.5083 208.979C82.5067 217.797 117.217 273.008 121.084 299.034L121.793 269.194L121.686 235.22C121.686 226.388 123.038 195.331 121.164 189.697C118.221 186.62 113.912 185.87 114.34 179.287C115.089 167.846 132.177 166.588 133.957 177.748C135.107 185.001 131.307 186.941 127.387 189.51L127.079 298.15Z" fill="#14A4F5"/>
<path d="M311.463 196.92V85.2119H335.301V196.92H311.463ZM274.923 96.8699V75.1199H371.667V96.8699H274.923ZM451.53 199.008C439.698 199.008 429.2 196.34 420.036 191.004C410.872 185.552 403.68 178.128 398.46 168.732C393.24 159.22 390.63 148.316 390.63 136.02C390.63 123.724 393.24 112.878 398.46 103.482C403.68 93.9699 410.814 86.5459 419.862 81.2099C429.026 75.7579 439.524 73.0319 451.356 73.0319C459.708 73.0319 467.48 74.5399 474.672 77.5559C481.864 80.4559 488.128 84.5739 493.464 89.9099C498.916 95.1299 503.092 101.162 505.992 108.006L483.894 116.184C481.922 111.892 479.312 108.18 476.064 105.048C472.816 101.8 469.104 99.3059 464.928 97.5659C460.752 95.7099 456.228 94.7819 451.356 94.7819C444.28 94.7819 437.958 96.5799 432.39 100.176C426.938 103.656 422.646 108.47 419.514 114.618C416.498 120.766 414.99 127.9 414.99 136.02C414.99 144.14 416.556 151.332 419.688 157.596C422.82 163.744 427.17 168.616 432.738 172.212C438.306 175.692 444.686 177.432 451.878 177.432C456.866 177.432 461.39 176.504 465.45 174.648C469.626 172.676 473.28 170.008 476.412 166.644C479.66 163.28 482.27 159.394 484.242 154.986L506.34 162.99C503.44 170.066 499.264 176.33 493.812 181.782C488.476 187.234 482.212 191.468 475.02 194.484C467.828 197.5 459.998 199.008 451.53 199.008ZM595.708 167.688L535.33 79.8179L546.466 76.5119L560.212 75.1199L607.714 145.59L595.708 167.688ZM534.286 196.92V75.1199H558.124V196.92H534.286ZM595.708 167.688L583.702 145.59L631.204 75.1199L644.95 76.5119L655.738 79.4699L595.708 167.688ZM633.292 196.92V75.1199H656.956V196.92H633.292Z" fill="#14A4F5"/>
<path d="M284.354 248V225.6H288.738V248H284.354ZM287.682 248V244H298.658V248H287.682ZM287.682 238.592V234.688H297.186V238.592H287.682ZM287.682 229.6V225.6H298.53V229.6H287.682ZM334.366 248V243.904C335.39 243.904 336.339 243.723 337.214 243.36C338.088 242.997 338.846 242.496 339.486 241.856C340.147 241.216 340.659 240.469 341.022 239.616C341.384 238.741 341.566 237.803 341.566 236.8C341.566 235.797 341.384 234.869 341.022 234.016C340.659 233.141 340.147 232.384 339.486 231.744C338.846 231.104 338.088 230.603 337.214 230.24C336.339 229.877 335.39 229.696 334.366 229.696V225.6C336.648 225.6 338.664 226.08 340.414 227.04C342.184 228 343.56 229.323 344.542 231.008C345.544 232.672 346.046 234.603 346.046 236.8C346.046 238.976 345.544 240.907 344.542 242.592C343.539 244.277 342.163 245.6 340.414 246.56C338.664 247.52 336.648 248 334.366 248ZM329.726 248V243.904H334.366V248H329.726ZM327.198 248V225.6H331.582V248H327.198ZM329.726 229.696V225.6H334.366V229.696H329.726ZM382.372 248.448C380.516 248.448 378.905 248.085 377.54 247.36C376.175 246.635 375.119 245.621 374.372 244.32C373.647 242.997 373.284 241.44 373.284 239.648H377.668C377.668 240.608 377.86 241.451 378.244 242.176C378.649 242.88 379.204 243.424 379.908 243.808C380.633 244.192 381.476 244.384 382.436 244.384C383.396 244.384 384.228 244.192 384.932 243.808C385.657 243.424 386.212 242.88 386.596 242.176C387.001 241.451 387.204 240.608 387.204 239.648H391.588C391.588 241.44 391.204 242.997 390.436 244.32C389.689 245.621 388.623 246.635 387.236 247.36C385.871 248.085 384.249 248.448 382.372 248.448ZM373.284 239.648V225.6H377.668V239.648H373.284ZM387.204 239.648V225.6H391.588V239.648H387.204ZM430.023 248.384C427.847 248.384 425.916 247.893 424.231 246.912C422.546 245.909 421.223 244.544 420.263 242.816C419.303 241.067 418.823 239.061 418.823 236.8C418.823 234.539 419.303 232.544 420.263 230.816C421.223 229.067 422.535 227.701 424.199 226.72C425.884 225.717 427.815 225.216 429.991 225.216C431.527 225.216 432.956 225.493 434.279 226.048C435.602 226.581 436.754 227.339 437.735 228.32C438.738 229.28 439.506 230.389 440.039 231.648L435.975 233.152C435.612 232.363 435.132 231.68 434.535 231.104C433.938 230.507 433.255 230.048 432.487 229.728C431.719 229.387 430.887 229.216 429.991 229.216C428.69 229.216 427.527 229.547 426.503 230.208C425.5 230.848 424.711 231.733 424.135 232.864C423.58 233.995 423.303 235.307 423.303 236.8C423.303 238.293 423.591 239.616 424.167 240.768C424.743 241.899 425.543 242.795 426.567 243.456C427.591 244.096 428.764 244.416 430.087 244.416C431.004 244.416 431.836 244.245 432.583 243.904C433.351 243.541 434.023 243.051 434.599 242.432C435.196 241.813 435.676 241.099 436.039 240.288L440.103 241.76C439.57 243.061 438.802 244.213 437.799 245.216C436.818 246.219 435.666 246.997 434.343 247.552C433.02 248.107 431.58 248.384 430.023 248.384ZM482.843 248L474.267 225.6H478.651L487.483 248H482.843ZM465.147 248L473.979 225.6H478.363L469.787 248H465.147ZM469.307 243.072V239.2H483.355V243.072H469.307ZM517.371 248V227.456H521.755V248H517.371ZM510.651 229.6V225.6H528.443V229.6H510.651ZM555.323 248V225.6H559.707V248H555.323ZM598.813 248.384C596.551 248.384 594.546 247.893 592.797 246.912C591.069 245.909 589.714 244.544 588.733 242.816C587.751 241.067 587.261 239.072 587.261 236.832C587.261 234.549 587.751 232.544 588.733 230.816C589.714 229.067 591.058 227.701 592.765 226.72C594.493 225.739 596.477 225.248 598.717 225.248C600.978 225.248 602.962 225.749 604.669 226.752C606.397 227.733 607.751 229.099 608.733 230.848C609.714 232.576 610.205 234.571 610.205 236.832C610.205 239.072 609.714 241.067 608.733 242.816C607.773 244.544 606.429 245.909 604.701 246.912C602.994 247.893 601.031 248.384 598.813 248.384ZM598.813 244.384C600.178 244.384 601.373 244.064 602.397 243.424C603.442 242.763 604.253 241.867 604.829 240.736C605.426 239.605 605.725 238.304 605.725 236.832C605.725 235.339 605.426 234.027 604.829 232.896C604.231 231.765 603.41 230.88 602.365 230.24C601.319 229.579 600.103 229.248 598.717 229.248C597.373 229.248 596.167 229.579 595.101 230.24C594.055 230.88 593.234 231.765 592.637 232.896C592.039 234.027 591.741 235.339 591.741 236.832C591.741 238.304 592.039 239.605 592.637 240.736C593.234 241.867 594.066 242.763 595.133 243.424C596.199 244.064 597.426 244.384 598.813 244.384ZM653.28 248L638.784 228L642.336 225.6L656.768 245.504L653.28 248ZM637.76 248V225.6H642.336L642.144 229.472V248.032L637.76 248ZM653.28 248V225.6H657.632V248H653.28Z" fill="#14A4F5"/>
</svg>
