<svg width="122" height="55" viewBox="0 0 122 55" fill="none" xmlns="http://www.w3.org/2000/svg">
<path fill-rule="evenodd" clip-rule="evenodd" d="M0.504883 10.0113C0.929587 10.397 1.16391 10.4263 1.85466 10.7143L5.98455 12.4839C6.87545 12.8671 7.77856 13.2381 8.72804 13.6482C12.2624 15.181 11.6033 13.758 11.5423 20.1383C13.2826 19.904 16.6632 17.8928 23.1778 17.927H23.312C25.909 17.9416 29.646 18.5079 32.0306 19.2767C32.7824 19.5208 34.0492 20.0456 34.8059 20.1359L34.7961 15.1468C32.4651 13.8849 30.5735 13.5115 27.808 12.7158C34.0419 12.3057 35.2281 14.2144 36.0849 14.2169C36.9538 14.2218 40.9226 11.9249 41.65 12.0275V17.2533C41.4034 17.2899 41.1838 17.2582 41.0544 17.2777C40.5321 17.3582 40.4295 17.0238 40.4295 18.1588L40.681 18.2809C40.72 18.2931 40.7639 18.3126 40.8128 18.3248L41.5011 18.4298C41.8525 18.6177 41.6915 21.5687 41.5279 21.9836C41.1618 22.916 40.1806 25.2104 40.122 25.9182L44.042 25.9133C44.0493 25.1201 43.0656 23.0332 42.7386 22.1349C42.4383 21.3124 42.5457 20.6924 42.5335 19.7698C42.5091 18.0319 42.3407 18.5616 43.8125 18.3712V17.3094L42.5262 17.263L42.5531 11.5661C43.4708 10.9803 45.1111 10.6606 45.8482 10.087C45.4796 9.74285 35.9628 5.59831 34.6838 5.0418L23.2827 0.00148987C22.7579 -0.0644126 18.301 2.0762 17.5272 2.41547C15.5209 3.29905 13.7513 4.06791 11.8401 4.94173L0.5 10.0089L0.504883 10.0113Z" fill="white"/>
<path fill-rule="evenodd" clip-rule="evenodd" d="M23.6802 54.3856C24.7811 49.9457 30.8099 40.7755 34.8275 37.9319C33.2825 32.9526 32.0401 28.9301 33.9391 23.6677C34.127 23.1454 34.5078 22.4571 34.6274 21.9006C33.9513 21.7346 32.9774 21.2879 32.1524 21.0023C25.5499 18.7348 17.9223 18.9789 11.6836 21.9909C15.6133 27.8464 12.7893 35.2739 11.5371 38.1199C15.5498 39.7284 21.8813 49.7992 22.5867 54.5467L22.7161 49.1036L22.6966 42.9063C22.6966 41.2954 22.9431 35.6302 22.6014 34.6026C22.0644 34.0412 21.2785 33.9046 21.3566 32.7037C21.4933 30.6168 24.6102 30.3873 24.9348 32.423C25.1447 33.7459 24.4515 34.0998 23.7364 34.5685L23.6802 54.3856Z" fill="white"/>
<path d="M121.361 43.5752H120.787L119.303 41.6271V43.5752H118.638V40.5107H119.259L120.695 42.3976V40.5107H121.361V43.5752Z" fill="white"/>
<path d="M113.005 42.0428C113.005 42.2617 112.964 42.4674 112.883 42.6601C112.801 42.8498 112.687 43.0176 112.541 43.1635C112.398 43.3065 112.226 43.4203 112.025 43.505C111.826 43.5867 111.609 43.6276 111.372 43.6276C111.136 43.6276 110.918 43.5867 110.72 43.505C110.521 43.4203 110.349 43.308 110.203 43.1679C110.06 43.0249 109.948 42.8585 109.866 42.6688C109.787 42.4762 109.748 42.2704 109.748 42.0515V42.0428C109.748 41.8239 109.789 41.6196 109.871 41.4299C109.952 41.2373 110.065 41.0694 110.208 40.9264C110.354 40.7805 110.526 40.6667 110.724 40.585C110.926 40.5003 111.145 40.458 111.381 40.458C111.617 40.458 111.835 40.5003 112.033 40.585C112.232 40.6667 112.402 40.779 112.545 40.9221C112.691 41.0622 112.804 41.2285 112.883 41.4211C112.964 41.6108 113.005 41.8151 113.005 42.034V42.0428ZM112.3 42.0515V42.0428C112.3 41.9115 112.277 41.7874 112.23 41.6707C112.187 41.5539 112.122 41.4518 112.038 41.3642C111.956 41.2767 111.858 41.2081 111.744 41.1585C111.631 41.1059 111.506 41.0797 111.372 41.0797C111.235 41.0797 111.11 41.1045 110.996 41.1541C110.885 41.2037 110.789 41.2723 110.707 41.3598C110.628 41.4474 110.565 41.5495 110.519 41.6663C110.475 41.7801 110.453 41.9027 110.453 42.034V42.0428C110.453 42.1741 110.475 42.2982 110.519 42.4149C110.565 42.5316 110.629 42.6338 110.711 42.7214C110.796 42.8089 110.894 42.879 111.004 42.9315C111.118 42.9811 111.244 43.0059 111.381 43.0059C111.515 43.0059 111.639 42.9811 111.753 42.9315C111.867 42.8819 111.963 42.8133 112.042 42.7257C112.124 42.6382 112.187 42.5375 112.23 42.4237C112.277 42.3069 112.3 42.1829 112.3 42.0515Z" fill="white"/>
<path d="M104.083 43.5752H103.409V40.5107H104.083V43.5752Z" fill="white"/>
<path d="M97.8253 41.1324H96.8928V43.5752H96.2186V41.1324H95.2861V40.5107H97.8253V41.1324Z" fill="white"/>
<path d="M89.9974 43.5751H89.2926L89.0124 42.8878H87.7165L87.4363 43.5751H86.749L88.0624 40.4888H88.684L89.9974 43.5751ZM88.7716 42.2924L88.3644 41.2987L87.9573 42.2924H88.7716Z" fill="white"/>
<path d="M81.4375 43.0803C81.3587 43.165 81.2769 43.2409 81.1923 43.308C81.1077 43.3751 81.0143 43.4335 80.9121 43.4831C80.8129 43.5298 80.7034 43.5648 80.5838 43.5882C80.4641 43.6144 80.3299 43.6276 80.181 43.6276C79.9563 43.6276 79.7476 43.5867 79.555 43.505C79.3624 43.4233 79.196 43.3124 79.0559 43.1723C78.9158 43.0293 78.8064 42.8614 78.7276 42.6688C78.6488 42.4762 78.6094 42.2704 78.6094 42.0515V42.0428C78.6094 41.8239 78.6488 41.6196 78.7276 41.4299C78.8064 41.2373 78.9158 41.0694 79.0559 40.9264C79.196 40.7805 79.3638 40.6667 79.5594 40.585C79.7549 40.5003 79.9709 40.458 80.2073 40.458C80.3503 40.458 80.4802 40.4697 80.5969 40.493C80.7166 40.5164 80.8246 40.5485 80.9209 40.5893C81.0172 40.6302 81.1062 40.6798 81.1879 40.7382C81.2696 40.7966 81.3455 40.8608 81.4156 40.9308L80.9865 41.4255C80.8669 41.3175 80.7443 41.2329 80.6188 41.1716C80.4962 41.1103 80.3576 41.0797 80.2029 41.0797C80.0745 41.0797 79.9548 41.1045 79.8439 41.1541C79.7359 41.2037 79.6425 41.2723 79.5637 41.3598C79.4849 41.4474 79.4237 41.5495 79.3799 41.6663C79.3361 41.7801 79.3142 41.9027 79.3142 42.034V42.0428C79.3142 42.1741 79.3361 42.2982 79.3799 42.4149C79.4237 42.5316 79.4835 42.6338 79.5594 42.7214C79.6382 42.8089 79.7316 42.879 79.8395 42.9315C79.9505 42.9811 80.0716 43.0059 80.2029 43.0059C80.378 43.0059 80.5254 42.9738 80.6451 42.9096C80.7677 42.8454 80.8888 42.7578 81.0084 42.6469L81.4375 43.0803Z" fill="white"/>
<path d="M73.024 42.24C73.024 42.4735 72.9919 42.6763 72.9277 42.8485C72.8664 43.0207 72.7774 43.1652 72.6606 43.2819C72.5439 43.3957 72.4023 43.4818 72.236 43.5402C72.0696 43.5957 71.8843 43.6234 71.68 43.6234C71.2685 43.6234 70.9445 43.5096 70.7081 43.2819C70.4717 43.0543 70.3535 42.7143 70.3535 42.2619V40.5107H71.0277V42.2444C71.0277 42.4954 71.0861 42.6851 71.2028 42.8135C71.3196 42.939 71.4815 43.0017 71.6888 43.0017C71.896 43.0017 72.058 42.9404 72.1747 42.8179C72.2914 42.6953 72.3498 42.5114 72.3498 42.2663V40.5107H73.024V42.24Z" fill="white"/>
<path d="M64.7671 42.043C64.7671 42.259 64.7277 42.4603 64.6489 42.6471C64.5701 42.8339 64.4577 42.9959 64.3118 43.1331C64.1688 43.2702 63.9966 43.3782 63.7952 43.457C63.5967 43.5358 63.3778 43.5752 63.1385 43.5752H61.9434V40.5107H63.1385C63.3778 40.5107 63.5967 40.5501 63.7952 40.6289C63.9966 40.7048 64.1688 40.8114 64.3118 40.9485C64.4577 41.0857 64.5701 41.2477 64.6489 41.4345C64.7277 41.6183 64.7671 41.8183 64.7671 42.0342V42.043ZM64.0622 42.0517V42.043C64.0622 41.9087 64.0389 41.7847 63.9922 41.6709C63.9484 41.557 63.8857 41.4593 63.8039 41.3776C63.7251 41.2958 63.6288 41.2331 63.515 41.1893C63.4012 41.1426 63.2757 41.1193 63.1385 41.1193H62.6175V42.9667H63.1385C63.2757 42.9667 63.4012 42.9448 63.515 42.901C63.6288 42.8573 63.7251 42.7945 63.8039 42.7128C63.8857 42.6311 63.9484 42.5348 63.9922 42.4239C64.0389 42.313 64.0622 42.1889 64.0622 42.0517Z" fill="white"/>
<path d="M56.309 43.5752H53.9756V40.5107H56.2871V41.1105H54.6454V41.7322H56.0901V42.3319H54.6454V42.9755H56.309V43.5752Z" fill="white"/>
<path d="M121.5 33.9138H116.644V19.409L110.391 28.899H110.264L104.075 19.5042V33.9138H99.2822V11.6963H104.551L110.391 21.0911L116.231 11.6963H121.5V33.9138Z" fill="white"/>
<path d="M93.4646 30.3273C92.8933 30.9409 92.3008 31.4911 91.6872 31.9778C91.0735 32.4644 90.3964 32.8876 89.6558 33.2473C88.9364 33.5859 88.1429 33.8398 87.2754 34.0091C86.4078 34.1995 85.4345 34.2947 84.3554 34.2947C82.7261 34.2947 81.2132 33.9985 79.8166 33.406C78.4201 32.8136 77.214 32.0095 76.1984 30.9938C75.1827 29.957 74.3892 28.7403 73.8179 27.3438C73.2466 25.9473 72.9609 24.4555 72.9609 22.8686V22.8051C72.9609 21.2181 73.2466 19.7369 73.8179 18.3616C74.3892 16.965 75.1827 15.7484 76.1984 14.7115C77.214 13.6536 78.4307 12.8283 79.8484 12.2359C81.2661 11.6222 82.8319 11.3154 84.5458 11.3154C85.5826 11.3154 86.5242 11.4001 87.3706 11.5693C88.2381 11.7386 89.0211 11.9714 89.7193 12.2676C90.4176 12.5638 91.063 12.9236 91.6554 13.3467C92.2479 13.7699 92.798 14.2355 93.3059 14.7433L90.1954 18.3298C89.3279 17.5469 88.4392 16.9333 87.5293 16.4889C86.6406 16.0446 85.6355 15.8224 84.5141 15.8224C83.583 15.8224 82.7155 16.0023 81.9114 16.362C81.1285 16.7217 80.4514 17.2189 79.8801 17.8537C79.3088 18.4885 78.8645 19.2291 78.5471 20.0755C78.2297 20.9007 78.071 21.7894 78.071 22.7416V22.8051C78.071 23.7573 78.2297 24.6565 78.5471 25.5029C78.8645 26.3493 79.2982 27.0899 79.8484 27.7247C80.4197 28.3595 81.0968 28.8673 81.8797 29.2482C82.6838 29.6079 83.5619 29.7877 84.5141 29.7877C85.7836 29.7877 86.8522 29.555 87.7197 29.0895C88.6084 28.624 89.4866 27.9892 90.3541 27.1851L93.4646 30.3273Z" fill="white"/>
<path d="M68.2819 16.2033H61.5214V33.9138H56.6335V16.2033H49.873V11.6963H68.2819V16.2033Z" fill="white"/>
</svg>
