<svg width="24" height="24" viewBox="0 0 24 24" fill="none" xmlns="http://www.w3.org/2000/svg">
<mask id="mask0_707_983" style="mask-type:alpha" maskUnits="userSpaceOnUse" x="0" y="0" width="24" height="24">
<rect width="24" height="24" fill="#D9D9D9"/>
</mask>
<g mask="url(#mask0_707_983)">
<path d="M5.25001 18.8846C5.03719 18.8846 4.85899 18.8128 4.71541 18.6692C4.57181 18.5256 4.50001 18.3474 4.50001 18.1346C4.50001 17.9218 4.57181 17.7436 4.71541 17.6C4.85899 17.4564 5.03719 17.3846 5.25001 17.3846H6.30771V9.92305C6.30771 8.57818 6.72276 7.38908 7.55288 6.35575C8.38302 5.32242 9.44872 4.66153 10.75 4.37308V3.75C10.75 3.40385 10.8718 3.10898 11.1154 2.8654C11.359 2.6218 11.6538 2.5 12 2.5C12.3461 2.5 12.641 2.6218 12.8846 2.8654C13.1282 3.10898 13.25 3.40385 13.25 3.75V4.37308C14.5512 4.66153 15.6169 5.32242 16.4471 6.35575C17.2772 7.38908 17.6923 8.57818 17.6923 9.92305V17.3846H18.75C18.9628 17.3846 19.141 17.4564 19.2846 17.6C19.4282 17.7436 19.5 17.9218 19.5 18.1346C19.5 18.3474 19.4282 18.5256 19.2846 18.6692C19.141 18.8128 18.9628 18.8846 18.75 18.8846H5.25001ZM12 21.6923C11.5013 21.6923 11.0753 21.5157 10.7221 21.1625C10.3689 20.8093 10.1923 20.3833 10.1923 19.8846H13.8077C13.8077 20.3833 13.6311 20.8093 13.2779 21.1625C12.9247 21.5157 12.4987 21.6923 12 21.6923ZM3.36538 9.91343C3.15258 9.91343 2.97438 9.83234 2.83078 9.67018C2.6872 9.50799 2.62566 9.31729 2.64618 9.09808C2.75386 7.85448 3.08784 6.69998 3.64811 5.6346C4.20836 4.56922 4.93336 3.64935 5.82311 2.875C5.98849 2.73013 6.17662 2.66283 6.38751 2.67308C6.59841 2.68333 6.76796 2.77628 6.89616 2.95193C7.02436 3.12756 7.07179 3.31665 7.03846 3.5192C7.00512 3.72177 6.90577 3.89741 6.74038 4.04613C6.02628 4.68203 5.44647 5.43395 5.00096 6.3019C4.55544 7.16985 4.27883 8.11088 4.17113 9.12498C4.14421 9.34421 4.05801 9.53043 3.91251 9.68363C3.76699 9.83683 3.58461 9.91343 3.36538 9.91343ZM20.6346 9.91343C20.4153 9.91343 20.233 9.83683 20.0875 9.68363C19.942 9.53043 19.8557 9.34421 19.8288 9.12498C19.7211 8.11088 19.4445 7.16985 18.999 6.3019C18.5535 5.43395 17.9737 4.68203 17.2596 4.04613C17.0942 3.89741 16.9948 3.72177 16.9615 3.5192C16.9282 3.31665 16.9756 3.12756 17.1038 2.95193C17.232 2.77628 17.4016 2.68333 17.6125 2.67308C17.8233 2.66283 18.0115 2.73013 18.1769 2.875C19.0666 3.64935 19.7916 4.56922 20.3519 5.6346C20.9121 6.69998 21.2461 7.85448 21.3538 9.09808C21.3743 9.31729 21.3128 9.50799 21.1692 9.67018C21.0256 9.83234 20.8474 9.91343 20.6346 9.91343Z" fill="white"/>
</g>
</svg>
