<svg width="24" height="25" viewBox="0 0 24 25" fill="none" xmlns="http://www.w3.org/2000/svg">
<mask id="mask0_707_966" style="mask-type:alpha" maskUnits="userSpaceOnUse" x="0" y="0" width="24" height="25">
<rect y="0.5" width="24" height="24" fill="#D9D9D9"/>
</mask>
<g mask="url(#mask0_707_966)">
<path d="M5.25001 19.3846C5.03719 19.3846 4.85899 19.3128 4.71541 19.1692C4.57181 19.0256 4.50001 18.8474 4.50001 18.6346C4.50001 18.4218 4.57181 18.2436 4.71541 18.1C4.85899 17.9564 5.03719 17.8846 5.25001 17.8846H6.30771V10.4231C6.30771 9.07818 6.72276 7.88908 7.55288 6.85575C8.38302 5.82242 9.44872 5.16153 10.75 4.87308V4.25C10.75 3.90385 10.8718 3.60898 11.1154 3.3654C11.359 3.1218 11.6538 3 12 3C12.3461 3 12.641 3.1218 12.8846 3.3654C13.1282 3.60898 13.25 3.90385 13.25 4.25V4.87308C14.5512 5.16153 15.6169 5.82242 16.4471 6.85575C17.2772 7.88908 17.6923 9.07818 17.6923 10.4231V17.8846H18.75C18.9628 17.8846 19.141 17.9564 19.2846 18.1C19.4282 18.2436 19.5 18.4218 19.5 18.6346C19.5 18.8474 19.4282 19.0256 19.2846 19.1692C19.141 19.3128 18.9628 19.3846 18.75 19.3846H5.25001ZM12 22.1923C11.5013 22.1923 11.0753 22.0157 10.7221 21.6625C10.3689 21.3093 10.1923 20.8833 10.1923 20.3846H13.8077C13.8077 20.8833 13.6311 21.3093 13.2779 21.6625C12.9247 22.0157 12.4987 22.1923 12 22.1923ZM3.36538 10.4134C3.15258 10.4134 2.97438 10.3323 2.83078 10.1702C2.6872 10.008 2.62566 9.81729 2.64618 9.59808C2.75386 8.35448 3.08784 7.19998 3.64811 6.1346C4.20836 5.06922 4.93336 4.14935 5.82311 3.375C5.98849 3.23013 6.17662 3.16283 6.38751 3.17308C6.59841 3.18333 6.76796 3.27628 6.89616 3.45193C7.02436 3.62756 7.07179 3.81665 7.03846 4.0192C7.00512 4.22177 6.90577 4.39741 6.74038 4.54613C6.02628 5.18203 5.44647 5.93395 5.00096 6.8019C4.55544 7.66985 4.27883 8.61088 4.17113 9.62498C4.14421 9.84421 4.05801 10.0304 3.91251 10.1836C3.76699 10.3368 3.58461 10.4134 3.36538 10.4134ZM20.6346 10.4134C20.4153 10.4134 20.233 10.3368 20.0875 10.1836C19.942 10.0304 19.8557 9.84421 19.8288 9.62498C19.7211 8.61088 19.4445 7.66985 18.999 6.8019C18.5535 5.93395 17.9737 5.18203 17.2596 4.54613C17.0942 4.39741 16.9948 4.22177 16.9615 4.0192C16.9282 3.81665 16.9756 3.62756 17.1038 3.45193C17.232 3.27628 17.4016 3.18333 17.6125 3.17308C17.8233 3.16283 18.0115 3.23013 18.1769 3.375C19.0666 4.14935 19.7916 5.06922 20.3519 6.1346C20.9121 7.19998 21.2461 8.35448 21.3538 9.59808C21.3743 9.81729 21.3128 10.008 21.1692 10.1702C21.0256 10.3323 20.8474 10.4134 20.6346 10.4134Z" fill="#43AAF6"/>
</g>
</svg>
